<svg width="21" height="17" viewBox="0 0 21 17" fill="none" xmlns="http://www.w3.org/2000/svg">
<path d="M14.1376 13.0145C14.2916 13.3499 14.435 13.9988 14.5387 14.6128H3.1306C3.23854 13.9832 3.38884 13.3128 3.55069 12.9684C4.48331 10.9839 6.49908 9.61275 8.83341 9.61275C11.1858 9.61275 13.2147 11.0052 14.1376 13.0145Z" stroke="black" stroke-width="1.66667"/>
<path d="M11.3333 5.44613C11.3333 6.82684 10.214 7.94613 8.83333 7.94613C7.45262 7.94613 6.33333 6.82684 6.33333 5.44613C6.33333 4.06541 7.45262 2.94613 8.83333 2.94613C10.214 2.94613 11.3333 4.06541 11.3333 5.44613Z" stroke="black" stroke-width="1.66667"/>
<line x1="16.3333" y1="6.61279" x2="16.3333" y2="11.6128" stroke="black" stroke-width="1.66667"/>
<line x1="13.8333" y1="9.11271" x2="18.8333" y2="9.11271" stroke="black" stroke-width="1.66667"/>
</svg>
