<svg width="21" height="20" viewBox="0 0 21 20" fill="none" xmlns="http://www.w3.org/2000/svg">
<path fill-rule="evenodd" clip-rule="evenodd" d="M14.3764 15C14.8734 15 15.2596 14.5676 15.1697 14.0788C15.0936 13.6647 14.9875 13.2051 14.8544 12.9155C14.0642 11.1948 12.3258 10 10.3083 10C8.30641 10 6.57927 11.1765 5.78066 12.8759C5.64056 13.174 5.52904 13.6506 5.44962 14.0769C5.35845 14.5662 5.74473 15 6.24251 15H14.3764Z" fill="black"/>
<path fill-rule="evenodd" clip-rule="evenodd" d="M6.14192 10.877C5.40832 11.4692 4.80689 12.1906 4.38213 13.0011C4.22906 13.2932 4.09319 13.6817 3.97453 14.1666H2.7677C2.26559 14.1666 1.87161 13.7231 1.99939 13.2375C2.04791 13.0531 2.1058 12.8775 2.17236 12.7505C2.76605 11.6176 4.05001 10.8333 5.53825 10.8333C5.7438 10.8333 5.94545 10.8482 6.14192 10.877Z" fill="black"/>
<path fill-rule="evenodd" clip-rule="evenodd" d="M16.6451 14.1666C16.533 13.7057 16.405 13.3348 16.2612 13.0539C15.8353 12.2218 15.2241 11.482 14.4751 10.877C14.6714 10.8482 14.8728 10.8333 15.0781 10.8333C16.577 10.8333 17.8685 11.6298 18.4556 12.7769C18.5178 12.8983 18.572 13.0644 18.6178 13.2396C18.7444 13.7246 18.3502 14.1666 17.849 14.1666H16.6451Z" fill="black"/>
<path fill-rule="evenodd" clip-rule="evenodd" d="M10.3069 10C11.7106 10 12.8486 8.88071 12.8486 7.5C12.8486 6.11929 11.7106 5 10.3069 5C8.90311 5 7.76514 6.11929 7.76514 7.5C7.76514 8.88071 8.90311 10 10.3069 10Z" fill="black"/>
<path fill-rule="evenodd" clip-rule="evenodd" d="M5.22378 10.8333C6.15962 10.8333 6.91827 10.0871 6.91827 9.16667C6.91827 8.24619 6.15962 7.5 5.22378 7.5C4.28794 7.5 3.5293 8.24619 3.5293 9.16667C3.5293 10.0871 4.28794 10.8333 5.22378 10.8333Z" fill="black"/>
<path fill-rule="evenodd" clip-rule="evenodd" d="M15.3908 10.8333C16.3266 10.8333 17.0853 10.0871 17.0853 9.16667C17.0853 8.24619 16.3266 7.5 15.3908 7.5C14.4549 7.5 13.6963 8.24619 13.6963 9.16667C13.6963 10.0871 14.4549 10.8333 15.3908 10.8333Z" fill="black"/>
</svg>
