<svg width="20" height="20" viewBox="0 0 20 20" fill="none" xmlns="http://www.w3.org/2000/svg">
<path d="M17 3.66667V12.259L15.0753 11.1362L14.8418 11L14.5714 11L7.66667 11C7.29848 11 7 10.7015 7 10.3333V3.66667C7 3.29848 7.29848 3 7.66667 3H16.3333C16.7015 3 17 3.29848 17 3.66667Z" stroke="#40444D" stroke-width="2"/>
<path fill-rule="evenodd" clip-rule="evenodd" d="M4 6H3.66667C2.74619 6 2 6.74619 2 7.66667V15.6846V18L4 16.8333L5.42857 16L12.3333 16C13.2538 16 14 15.2538 14 14.3333V14H5.42857L4.88787 14L4.42083 14.2724L4 14.5179V14V8V6Z" fill="#40444D"/>
</svg>
