<svg width="16" height="17" viewBox="0 0 16 17" fill="none" xmlns="http://www.w3.org/2000/svg">
<path fill-rule="evenodd" clip-rule="evenodd" d="M6.95073 11.954C7.27991 12.3819 7.62967 12.8399 8 13.3333C8.369 12.8386 8.71758 12.3799 9.04574 11.9516C9.2814 11.644 9.50653 11.3521 9.72112 11.0738C11.907 8.23962 13 6.82251 13 4.66667C13 2.08934 10.7614 0 8 0C5.23858 0 3 2.08934 3 4.66667C3 6.84324 4.11692 8.28774 6.35077 11.1767C6.54253 11.4247 6.74251 11.6834 6.95073 11.954ZM7.99674 10.5801C8.15907 10.3691 8.31453 10.1677 8.46351 9.97469C9.25925 8.94389 9.87006 8.15265 10.3548 7.41084C11.0812 6.29915 11.3333 5.56583 11.3333 4.66667C11.3333 3.11625 9.95112 1.66667 8 1.66667C6.04888 1.66667 4.66667 3.11625 4.66667 4.66667C4.66667 5.56567 4.91992 6.30652 5.64646 7.42173C6.1431 8.18406 6.77654 9.00271 7.60692 10.0759L7.60709 10.0761L7.60801 10.0773C7.73305 10.2389 7.86256 10.4063 7.99674 10.5801ZM4.93058 11.4087C4.66706 11.4865 4.42367 11.5735 4.20346 11.6678C3.7374 11.8676 3.41348 12.084 3.21818 12.2819C3.02642 12.4762 2.99998 12.6063 2.99998 12.6696C2.99998 12.733 3.02642 12.8631 3.21818 13.0574C3.41348 13.2553 3.7374 13.4717 4.20346 13.6715C5.1326 14.0697 6.4743 14.3363 7.99998 14.3363C9.52566 14.3363 10.8674 14.0697 11.7965 13.6715C12.2626 13.4717 12.5865 13.2553 12.7818 13.0574C12.9735 12.8631 13 12.733 13 12.6696C13 12.6063 12.9735 12.4762 12.7818 12.2819C12.5865 12.084 12.2626 11.8676 11.7965 11.6678C11.5712 11.5713 11.3216 11.4824 11.051 11.4033L12.1128 10C12.2294 10.0434 12.3429 10.0887 12.453 10.1359C13.0426 10.3886 13.573 10.7109 13.968 11.1112C14.3666 11.5151 14.6666 12.0427 14.6666 12.6696C14.6666 13.2966 14.3666 13.8242 13.968 14.2281C13.573 14.6284 13.0426 14.9507 12.453 15.2034C11.2709 15.71 9.69596 16.003 7.99998 16.003C6.304 16.003 4.72903 15.71 3.54692 15.2034C2.95735 14.9507 2.427 14.6284 2.03194 14.2281C1.63333 13.8242 1.33331 13.2966 1.33331 12.6696C1.33331 12.0427 1.63333 11.5151 2.03194 11.1112C2.427 10.7109 2.95735 10.3886 3.54692 10.1359C3.64782 10.0927 3.75158 10.051 3.85803 10.0109L4.93058 11.4087ZM7.99998 6.33333C8.92045 6.33333 9.66665 5.58714 9.66665 4.66667C9.66665 3.74619 8.92045 3 7.99998 3C7.0795 3 6.33331 3.74619 6.33331 4.66667C6.33331 5.58714 7.0795 6.33333 7.99998 6.33333Z" fill="#40444D"/>
</svg>
