<svg width="20" height="20" viewBox="0 0 20 20" fill="none" xmlns="http://www.w3.org/2000/svg">
<path fill-rule="evenodd" clip-rule="evenodd" d="M10.0006 4C6.69898 4 4 6.69718 4 10.0458C4 13.3643 6.66907 15.9999 10.0006 15.9999C13.3327 15.9999 15.9999 13.3649 15.9999 10.0458C15.9999 6.69657 13.3028 4 10.0006 4ZM2 10.0458C2 5.60306 5.58398 2 10.0006 2C14.4184 2 17.9999 5.60306 17.9999 10.0458C17.9999 14.4882 14.4184 17.9999 10.0006 17.9999C5.58398 17.9999 2 14.4882 2 10.0458ZM9.00024 13.9999V8.99994H11.0002V13.9999H9.00024ZM9.9995 8C10.552 8 11 7.5525 11 7C11 6.4475 10.552 6 9.9995 6C9.448 6 9 6.4475 9 7C9 7.5525 9.448 8 9.9995 8Z" fill="#000000"/>
</svg>
