<svg width="516" height="416" viewBox="0 0 516 416" fill="none" xmlns="http://www.w3.org/2000/svg">
<g filter="url(#filter0_ddd)">
<rect x="8" y="4" width="500" height="400" fill="white"/>
</g>
<rect x="19" y="15" width="478" height="378" stroke="black" stroke-width="2"/>
<path d="M200.394 271H202.854V267.227H204.923C207.599 267.227 209.156 265.631 209.156 263.307C209.156 260.994 207.627 259.364 204.985 259.364H200.394V271ZM202.854 265.256V261.375H204.513C205.934 261.375 206.621 262.148 206.621 263.307C206.621 264.46 205.934 265.256 204.525 265.256H202.854ZM212.962 271.165C214.252 271.165 215.087 270.602 215.513 269.79H215.582V271H217.877V265.114C217.877 263.034 216.116 262.159 214.173 262.159C212.082 262.159 210.707 263.159 210.371 264.75L212.61 264.932C212.775 264.352 213.292 263.926 214.161 263.926C214.985 263.926 215.457 264.341 215.457 265.057V265.091C215.457 265.653 214.86 265.727 213.343 265.875C211.616 266.034 210.065 266.614 210.065 268.562C210.065 270.29 211.298 271.165 212.962 271.165ZM213.656 269.494C212.911 269.494 212.377 269.148 212.377 268.483C212.377 267.801 212.94 267.466 213.792 267.347C214.32 267.273 215.184 267.148 215.474 266.955V267.881C215.474 268.795 214.718 269.494 213.656 269.494ZM223.687 274.398C226.181 274.398 227.954 273.261 227.954 271.085V262.273H225.55V263.739H225.46C225.136 263.028 224.425 262.159 222.965 262.159C221.05 262.159 219.431 263.648 219.431 266.619C219.431 269.523 221.005 270.875 222.971 270.875C224.363 270.875 225.141 270.176 225.46 269.455H225.562V271.051C225.562 272.193 224.795 272.659 223.744 272.659C222.675 272.659 222.136 272.193 221.937 271.722L219.698 272.023C219.988 273.341 221.335 274.398 223.687 274.398ZM223.738 269.057C222.55 269.057 221.903 268.114 221.903 266.608C221.903 265.125 222.539 264.085 223.738 264.085C224.914 264.085 225.573 265.08 225.573 266.608C225.573 268.148 224.903 269.057 223.738 269.057ZM233.857 271.17C236.016 271.17 237.471 270.119 237.812 268.5L235.573 268.352C235.329 269.017 234.704 269.364 233.897 269.364C232.687 269.364 231.92 268.562 231.92 267.261V267.256H237.863V266.591C237.863 263.625 236.067 262.159 233.761 262.159C231.192 262.159 229.528 263.983 229.528 266.676C229.528 269.443 231.17 271.17 233.857 271.17ZM231.92 265.756C231.971 264.761 232.727 263.966 233.8 263.966C234.852 263.966 235.579 264.716 235.585 265.756H231.92ZM245.566 265.955C245.572 264.83 246.242 264.17 247.219 264.17C248.191 264.17 248.776 264.807 248.771 265.875V271H251.191V265.443C251.191 263.409 249.998 262.159 248.18 262.159C246.884 262.159 245.947 262.795 245.555 263.812H245.452V262.273H243.146V271H245.566V265.955ZM257.042 271.17C259.69 271.17 261.337 269.358 261.337 266.67C261.337 263.966 259.69 262.159 257.042 262.159C254.394 262.159 252.746 263.966 252.746 266.67C252.746 269.358 254.394 271.17 257.042 271.17ZM257.053 269.295C255.832 269.295 255.207 268.176 255.207 266.653C255.207 265.131 255.832 264.006 257.053 264.006C258.252 264.006 258.877 265.131 258.877 266.653C258.877 268.176 258.252 269.295 257.053 269.295ZM267.553 262.273H265.911V260.182H263.491V262.273H262.298V264.091H263.491V268.636C263.479 270.347 264.644 271.193 266.4 271.119C267.025 271.097 267.468 270.972 267.712 270.892L267.332 269.091C267.212 269.114 266.957 269.17 266.729 269.17C266.246 269.17 265.911 268.989 265.911 268.318V264.091H267.553V262.273ZM277.526 262.273H275.793V261.688C275.793 261.097 276.032 260.75 276.742 260.75C277.032 260.75 277.327 260.812 277.521 260.875L277.947 259.057C277.646 258.966 276.981 258.818 276.237 258.818C274.594 258.818 273.373 259.744 273.373 261.642V262.273H272.14V264.091H273.373V271H275.793V264.091H277.526V262.273ZM282.636 271.17C285.283 271.17 286.931 269.358 286.931 266.67C286.931 263.966 285.283 262.159 282.636 262.159C279.988 262.159 278.34 263.966 278.34 266.67C278.34 269.358 279.988 271.17 282.636 271.17ZM282.647 269.295C281.425 269.295 280.8 268.176 280.8 266.653C280.8 265.131 281.425 264.006 282.647 264.006C283.846 264.006 284.471 265.131 284.471 266.653C284.471 268.176 283.846 269.295 282.647 269.295ZM294.102 267.284C294.107 268.455 293.306 269.068 292.437 269.068C291.522 269.068 290.931 268.426 290.925 267.398V262.273H288.505V267.83C288.511 269.869 289.704 271.114 291.46 271.114C292.772 271.114 293.715 270.438 294.107 269.415H294.198V271H296.522V262.273H294.102V267.284ZM300.879 265.955C300.884 264.83 301.555 264.17 302.532 264.17C303.504 264.17 304.089 264.807 304.083 265.875V271H306.504V265.443C306.504 263.409 305.31 262.159 303.492 262.159C302.197 262.159 301.259 262.795 300.867 263.812H300.765V262.273H298.458V271H300.879V265.955ZM311.627 271.142C313.036 271.142 313.769 270.33 314.104 269.602H314.207V271H316.593V259.364H314.178V263.739H314.104C313.781 263.028 313.082 262.159 311.621 262.159C309.707 262.159 308.087 263.648 308.087 266.648C308.087 269.568 309.638 271.142 311.627 271.142ZM312.394 269.216C311.207 269.216 310.559 268.159 310.559 266.636C310.559 265.125 311.195 264.085 312.394 264.085C313.57 264.085 314.229 265.08 314.229 266.636C314.229 268.193 313.559 269.216 312.394 269.216Z" fill="black"/>
<path d="M51.0595 290.561H54.0325V299H55.1774V290.561H58.1504V289.545H51.0595V290.561ZM60.8591 294.734C60.8591 293.497 61.6485 292.795 62.7242 292.795C63.749 292.795 64.3676 293.442 64.3676 294.568V299H65.4571V294.494C65.4571 292.671 64.4877 291.817 63.0381 291.817C61.9209 291.817 61.2838 292.283 60.9514 293.017H60.8591V289.545H59.7696V299H60.8591V294.734ZM70.4233 299.148C71.8636 299.148 72.9162 298.428 73.2486 297.357L72.196 297.061C71.919 297.8 71.2773 298.169 70.4233 298.169C69.1445 298.169 68.2628 297.343 68.212 295.824H73.3594V295.362C73.3594 292.722 71.7898 291.817 70.3125 291.817C68.392 291.817 67.1179 293.331 67.1179 295.51C67.1179 297.689 68.3736 299.148 70.4233 299.148ZM68.212 294.882C68.2859 293.779 69.0661 292.795 70.3125 292.795C71.4943 292.795 72.2514 293.682 72.2514 294.882H68.212ZM78.6729 301.659H79.7624V297.911H79.8548C80.0948 298.298 80.5565 299.148 81.9229 299.148C83.6957 299.148 84.9329 297.726 84.9329 295.473C84.9329 293.239 83.6957 291.817 81.9045 291.817C80.5195 291.817 80.0948 292.666 79.8548 293.036H79.7255V291.909H78.6729V301.659ZM79.744 295.455C79.744 293.866 80.4457 292.795 81.7752 292.795C83.1602 292.795 83.8434 293.959 83.8434 295.455C83.8434 296.969 83.1417 298.169 81.7752 298.169C80.4641 298.169 79.744 297.061 79.744 295.455ZM88.6815 299.166C89.9187 299.166 90.565 298.501 90.7866 298.04H90.842V299H91.9315V294.328C91.9315 292.075 90.2141 291.817 89.3093 291.817C88.2383 291.817 87.0195 292.186 86.4656 293.479L87.4996 293.848C87.7397 293.331 88.3075 292.777 89.3462 292.777C90.348 292.777 90.842 293.308 90.842 294.217V294.254C90.842 294.781 90.3065 294.734 89.0138 294.901C87.6982 295.071 86.2624 295.362 86.2624 296.987C86.2624 298.372 87.3335 299.166 88.6815 299.166ZM88.8477 298.188C87.9798 298.188 87.3519 297.8 87.3519 297.043C87.3519 296.212 88.109 295.953 88.9585 295.842C89.4201 295.787 90.6573 295.658 90.842 295.436V296.433C90.842 297.32 90.1403 298.188 88.8477 298.188ZM96.7822 301.807C98.4811 301.807 99.8476 301.031 99.8476 299.203V291.909H98.795V293.036H98.6842C98.4442 292.666 98.001 291.817 96.616 291.817C94.8248 291.817 93.5876 293.239 93.5876 295.418C93.5876 297.634 94.8802 298.889 96.5976 298.889C97.9825 298.889 98.4257 298.077 98.6657 297.689H98.7581V299.129C98.7581 300.311 97.9271 300.847 96.7822 300.847C95.4942 300.847 95.0418 300.168 94.751 299.776L93.8831 300.385C94.3263 301.128 95.1988 301.807 96.7822 301.807ZM96.7453 297.911C95.3788 297.911 94.6771 296.876 94.6771 295.399C94.6771 293.959 95.3604 292.795 96.7453 292.795C98.0748 292.795 98.7765 293.866 98.7765 295.399C98.7765 296.969 98.0564 297.911 96.7453 297.911ZM104.815 299.148C106.255 299.148 107.308 298.428 107.64 297.357L106.588 297.061C106.311 297.8 105.669 298.169 104.815 298.169C103.536 298.169 102.654 297.343 102.604 295.824H107.751V295.362C107.751 292.722 106.181 291.817 104.704 291.817C102.784 291.817 101.509 293.331 101.509 295.51C101.509 297.689 102.765 299.148 104.815 299.148ZM102.604 294.882C102.677 293.779 103.458 292.795 104.704 292.795C105.886 292.795 106.643 293.682 106.643 294.882H102.604ZM113.766 301.641C114.75 301.641 115.447 301.119 115.853 300.034L118.872 291.928L117.681 291.909L115.724 297.56H115.65L113.692 291.909H112.511L115.133 299.037L114.93 299.591C114.542 300.653 114.043 300.754 113.249 300.551L112.972 301.511C113.083 301.567 113.397 301.641 113.766 301.641ZM122.94 299.148C124.861 299.148 126.153 297.689 126.153 295.491C126.153 293.276 124.861 291.817 122.94 291.817C121.02 291.817 119.727 293.276 119.727 295.491C119.727 297.689 121.02 299.148 122.94 299.148ZM122.94 298.169C121.482 298.169 120.817 296.913 120.817 295.491C120.817 294.07 121.482 292.795 122.94 292.795C124.399 292.795 125.064 294.07 125.064 295.491C125.064 296.913 124.399 298.169 122.94 298.169ZM132.285 296.101C132.285 297.43 131.27 298.04 130.457 298.04C129.552 298.04 128.906 297.375 128.906 296.341V291.909H127.816V296.415C127.816 298.224 128.777 299.092 130.106 299.092C131.177 299.092 131.879 298.52 132.211 297.8H132.285V299H133.375V291.909H132.285V296.101ZM141.113 299.166C142.35 299.166 142.997 298.501 143.218 298.04H143.274V299H144.363V294.328C144.363 292.075 142.646 291.817 141.741 291.817C140.67 291.817 139.451 292.186 138.897 293.479L139.931 293.848C140.171 293.331 140.739 292.777 141.778 292.777C142.78 292.777 143.274 293.308 143.274 294.217V294.254C143.274 294.781 142.738 294.734 141.445 294.901C140.13 295.071 138.694 295.362 138.694 296.987C138.694 298.372 139.765 299.166 141.113 299.166ZM141.279 298.188C140.411 298.188 139.784 297.8 139.784 297.043C139.784 296.212 140.541 295.953 141.39 295.842C141.852 295.787 143.089 295.658 143.274 295.436V296.433C143.274 297.32 142.572 298.188 141.279 298.188ZM146.352 299H147.441V294.513C147.441 293.553 148.198 292.851 149.232 292.851C149.523 292.851 149.823 292.906 149.897 292.925V291.817C149.772 291.808 149.486 291.798 149.325 291.798C148.475 291.798 147.737 292.278 147.478 292.98H147.404V291.909H146.352V299ZM153.946 299.148C155.386 299.148 156.439 298.428 156.771 297.357L155.718 297.061C155.441 297.8 154.8 298.169 153.946 298.169C152.667 298.169 151.785 297.343 151.734 295.824H156.882V295.362C156.882 292.722 155.312 291.817 153.835 291.817C151.915 291.817 150.64 293.331 150.64 295.51C150.64 297.689 151.896 299.148 153.946 299.148ZM151.734 294.882C151.808 293.779 152.589 292.795 153.835 292.795C155.017 292.795 155.774 293.682 155.774 294.882H151.734ZM163.285 289.545H162.195V299H163.285V289.545ZM168.161 299.148C170.081 299.148 171.374 297.689 171.374 295.491C171.374 293.276 170.081 291.817 168.161 291.817C166.241 291.817 164.948 293.276 164.948 295.491C164.948 297.689 166.241 299.148 168.161 299.148ZM168.161 298.169C166.702 298.169 166.037 296.913 166.037 295.491C166.037 294.07 166.702 292.795 168.161 292.795C169.62 292.795 170.285 294.07 170.285 295.491C170.285 296.913 169.62 298.169 168.161 298.169ZM175.918 299.148C177.838 299.148 179.131 297.689 179.131 295.491C179.131 293.276 177.838 291.817 175.918 291.817C173.997 291.817 172.705 293.276 172.705 295.491C172.705 297.689 173.997 299.148 175.918 299.148ZM175.918 298.169C174.459 298.169 173.794 296.913 173.794 295.491C173.794 294.07 174.459 292.795 175.918 292.795C177.377 292.795 178.041 294.07 178.041 295.491C178.041 296.913 177.377 298.169 175.918 298.169ZM180.794 299H181.884V296.346L182.645 295.639L185.3 299H186.685L183.467 294.938L186.463 291.909H185.115L182.013 295.067H181.884V289.545H180.794V299ZM187.865 299H188.955V291.909H187.865V299ZM188.419 290.727C188.844 290.727 189.195 290.395 189.195 289.989C189.195 289.582 188.844 289.25 188.419 289.25C187.995 289.25 187.644 289.582 187.644 289.989C187.644 290.395 187.995 290.727 188.419 290.727ZM192.04 294.734C192.04 293.497 192.806 292.795 193.849 292.795C194.86 292.795 195.474 293.456 195.474 294.568V299H196.564V294.494C196.564 292.685 195.599 291.817 194.163 291.817C193.092 291.817 192.428 292.297 192.095 293.017H192.003V291.909H190.95V299H192.04V294.734ZM201.417 301.807C203.116 301.807 204.482 301.031 204.482 299.203V291.909H203.43V293.036H203.319C203.079 292.666 202.636 291.817 201.251 291.817C199.46 291.817 198.222 293.239 198.222 295.418C198.222 297.634 199.515 298.889 201.232 298.889C202.617 298.889 203.06 298.077 203.301 297.689H203.393V299.129C203.393 300.311 202.562 300.847 201.417 300.847C200.129 300.847 199.677 300.168 199.386 299.776L198.518 300.385C198.961 301.128 199.834 301.807 201.417 301.807ZM201.38 297.911C200.014 297.911 199.312 296.876 199.312 295.399C199.312 293.959 199.995 292.795 201.38 292.795C202.71 292.795 203.411 293.866 203.411 295.399C203.411 296.969 202.691 297.911 201.38 297.911ZM213.291 291.909H211.703V291.189C211.703 290.487 211.998 290.118 212.718 290.118C213.032 290.118 213.217 290.192 213.328 290.229L213.641 289.287C213.475 289.213 213.143 289.102 212.607 289.102C211.592 289.102 210.613 289.712 210.613 290.93V291.909H209.468V292.832H210.613V299H211.703V292.832H213.291V291.909ZM217.406 299.148C219.327 299.148 220.619 297.689 220.619 295.491C220.619 293.276 219.327 291.817 217.406 291.817C215.486 291.817 214.193 293.276 214.193 295.491C214.193 297.689 215.486 299.148 217.406 299.148ZM217.406 298.169C215.947 298.169 215.283 296.913 215.283 295.491C215.283 294.07 215.947 292.795 217.406 292.795C218.865 292.795 219.53 294.07 219.53 295.491C219.53 296.913 218.865 298.169 217.406 298.169ZM222.282 299H223.372V294.513C223.372 293.553 224.129 292.851 225.163 292.851C225.454 292.851 225.754 292.906 225.828 292.925V291.817C225.703 291.808 225.417 291.798 225.255 291.798C224.406 291.798 223.667 292.278 223.409 292.98H223.335V291.909H222.282V299ZM233.453 299.148C234.82 299.148 235.281 298.298 235.521 297.911H235.65V299H236.703V289.545H235.614V293.036H235.521C235.281 292.666 234.856 291.817 233.472 291.817C231.68 291.817 230.443 293.239 230.443 295.473C230.443 297.726 231.68 299.148 233.453 299.148ZM233.601 298.169C232.234 298.169 231.533 296.969 231.533 295.455C231.533 293.959 232.216 292.795 233.601 292.795C234.93 292.795 235.632 293.866 235.632 295.455C235.632 297.061 234.912 298.169 233.601 298.169ZM241.73 299.148C243.651 299.148 244.943 297.689 244.943 295.491C244.943 293.276 243.651 291.817 241.73 291.817C239.81 291.817 238.517 293.276 238.517 295.491C238.517 297.689 239.81 299.148 241.73 299.148ZM241.73 298.169C240.272 298.169 239.607 296.913 239.607 295.491C239.607 294.07 240.272 292.795 241.73 292.795C243.189 292.795 243.854 294.07 243.854 295.491C243.854 296.913 243.189 298.169 241.73 298.169ZM249.58 299.148C251.02 299.148 252.072 298.428 252.405 297.357L251.352 297.061C251.075 297.8 250.434 298.169 249.58 298.169C248.301 298.169 247.419 297.343 247.368 295.824H252.516V295.362C252.516 292.722 250.946 291.817 249.469 291.817C247.548 291.817 246.274 293.331 246.274 295.51C246.274 297.689 247.53 299.148 249.58 299.148ZM247.368 294.882C247.442 293.779 248.222 292.795 249.469 292.795C250.651 292.795 251.408 293.682 251.408 294.882H247.368ZM259.196 293.497C258.854 292.491 258.088 291.817 256.684 291.817C255.189 291.817 254.081 292.666 254.081 293.866C254.081 294.845 254.662 295.501 255.964 295.805L257.146 296.082C257.862 296.249 258.199 296.59 258.199 297.08C258.199 297.689 257.552 298.188 256.537 298.188C255.646 298.188 255.087 297.804 254.893 297.043L253.859 297.301C254.113 298.506 255.105 299.148 256.555 299.148C258.203 299.148 259.325 298.248 259.325 297.024C259.325 296.036 258.706 295.413 257.441 295.104L256.389 294.845C255.549 294.637 255.17 294.356 255.17 293.811C255.17 293.202 255.816 292.759 256.684 292.759C257.635 292.759 258.028 293.285 258.217 293.774L259.196 293.497ZM262.054 294.734C262.054 293.497 262.821 292.795 263.864 292.795C264.875 292.795 265.489 293.456 265.489 294.568V299H266.579V294.494C266.579 292.685 265.614 291.817 264.178 291.817C263.107 291.817 262.442 292.297 262.11 293.017H262.017V291.909H260.965V299H262.054V294.734ZM269.53 289.545H268.496V290.395C268.496 291.078 268.163 291.669 267.775 292.223L268.366 292.703C269.105 292.112 269.53 291.134 269.53 290.376V289.545ZM274.243 291.909H272.729V290.21H271.639V291.909H270.568V292.832H271.639V297.264C271.639 298.501 272.637 299.092 273.56 299.092C273.966 299.092 274.225 299.018 274.372 298.963L274.151 297.984C274.058 298.003 273.911 298.04 273.671 298.04C273.191 298.04 272.729 297.892 272.729 296.969V292.832H274.243V291.909ZM282.511 299.148C283.952 299.148 285.004 298.428 285.336 297.357L284.284 297.061C284.007 297.8 283.365 298.169 282.511 298.169C281.232 298.169 280.351 297.343 280.3 295.824H285.447V295.362C285.447 292.722 283.878 291.817 282.4 291.817C280.48 291.817 279.206 293.331 279.206 295.51C279.206 297.689 280.461 299.148 282.511 299.148ZM280.3 294.882C280.374 293.779 281.154 292.795 282.4 292.795C283.582 292.795 284.339 293.682 284.339 294.882H280.3ZM287.727 291.909H286.471L288.724 295.455L286.471 299H287.727L289.426 296.249L291.124 299H292.38L290.09 295.455L292.38 291.909H291.124L289.426 294.808L287.727 291.909ZM293.935 299H295.024V291.909H293.935V299ZM294.489 290.727C294.913 290.727 295.264 290.395 295.264 289.989C295.264 289.582 294.913 289.25 294.489 289.25C294.064 289.25 293.713 289.582 293.713 289.989C293.713 290.395 294.064 290.727 294.489 290.727ZM300.103 291.909H298.589V290.21H297.5V291.909H296.429V292.832H297.5V297.264C297.5 298.501 298.497 299.092 299.42 299.092C299.826 299.092 300.085 299.018 300.233 298.963L300.011 297.984C299.919 298.003 299.771 298.04 299.531 298.04C299.051 298.04 298.589 297.892 298.589 296.969V292.832H300.103V291.909ZM306.638 293.497C306.296 292.491 305.53 291.817 304.127 291.817C302.631 291.817 301.523 292.666 301.523 293.866C301.523 294.845 302.105 295.501 303.407 295.805L304.588 296.082C305.304 296.249 305.641 296.59 305.641 297.08C305.641 297.689 304.995 298.188 303.979 298.188C303.088 298.188 302.529 297.804 302.335 297.043L301.301 297.301C301.555 298.506 302.548 299.148 303.997 299.148C305.646 299.148 306.767 298.248 306.767 297.024C306.767 296.036 306.149 295.413 304.884 295.104L303.831 294.845C302.991 294.637 302.612 294.356 302.612 293.811C302.612 293.202 303.259 292.759 304.127 292.759C305.078 292.759 305.47 293.285 305.659 293.774L306.638 293.497ZM314.944 299.148C316.865 299.148 318.157 297.689 318.157 295.491C318.157 293.276 316.865 291.817 314.944 291.817C313.024 291.817 311.731 293.276 311.731 295.491C311.731 297.689 313.024 299.148 314.944 299.148ZM314.944 298.169C313.485 298.169 312.821 296.913 312.821 295.491C312.821 294.07 313.485 292.795 314.944 292.795C316.403 292.795 317.068 294.07 317.068 295.491C317.068 296.913 316.403 298.169 314.944 298.169ZM319.82 299H320.91V294.513C320.91 293.553 321.667 292.851 322.701 292.851C322.992 292.851 323.292 292.906 323.366 292.925V291.817C323.241 291.808 322.955 291.798 322.793 291.798C321.944 291.798 321.205 292.278 320.947 292.98H320.873V291.909H319.82V299ZM330.4 299.166C331.637 299.166 332.284 298.501 332.505 298.04H332.561V299H333.65V294.328C333.65 292.075 331.933 291.817 331.028 291.817C329.957 291.817 328.738 292.186 328.184 293.479L329.218 293.848C329.458 293.331 330.026 292.777 331.065 292.777C332.067 292.777 332.561 293.308 332.561 294.217V294.254C332.561 294.781 332.025 294.734 330.733 294.901C329.417 295.071 327.981 295.362 327.981 296.987C327.981 298.372 329.052 299.166 330.4 299.166ZM330.566 298.188C329.699 298.188 329.071 297.8 329.071 297.043C329.071 296.212 329.828 295.953 330.677 295.842C331.139 295.787 332.376 295.658 332.561 295.436V296.433C332.561 297.32 331.859 298.188 330.566 298.188ZM336.728 294.734C336.728 293.497 337.495 292.795 338.538 292.795C339.549 292.795 340.163 293.456 340.163 294.568V299H341.252V294.494C341.252 292.685 340.288 291.817 338.852 291.817C337.781 291.817 337.116 292.297 336.784 293.017H336.691V291.909H335.639V299H336.728V294.734ZM346.124 299.148C348.044 299.148 349.337 297.689 349.337 295.491C349.337 293.276 348.044 291.817 346.124 291.817C344.203 291.817 342.911 293.276 342.911 295.491C342.911 297.689 344.203 299.148 346.124 299.148ZM346.124 298.169C344.665 298.169 344 296.913 344 295.491C344 294.07 344.665 292.795 346.124 292.795C347.583 292.795 348.248 294.07 348.248 295.491C348.248 296.913 347.583 298.169 346.124 298.169ZM354.084 291.909H352.57V290.21H351.48V291.909H350.409V292.832H351.48V297.264C351.48 298.501 352.477 299.092 353.401 299.092C353.807 299.092 354.065 299.018 354.213 298.963L353.992 297.984C353.899 298.003 353.752 298.04 353.511 298.04C353.031 298.04 352.57 297.892 352.57 296.969V292.832H354.084V291.909ZM356.965 294.734C356.965 293.497 357.754 292.795 358.83 292.795C359.854 292.795 360.473 293.442 360.473 294.568V299H361.563V294.494C361.563 292.671 360.593 291.817 359.144 291.817C358.026 291.817 357.389 292.283 357.057 293.017H356.965V289.545H355.875V299H356.965V294.734ZM366.529 299.148C367.969 299.148 369.022 298.428 369.354 297.357L368.301 297.061C368.025 297.8 367.383 298.169 366.529 298.169C365.25 298.169 364.368 297.343 364.317 295.824H369.465V295.362C369.465 292.722 367.895 291.817 366.418 291.817C364.498 291.817 363.223 293.331 363.223 295.51C363.223 297.689 364.479 299.148 366.529 299.148ZM364.317 294.882C364.391 293.779 365.172 292.795 366.418 292.795C367.6 292.795 368.357 293.682 368.357 294.882H364.317ZM371.122 299H372.212V294.513C372.212 293.553 372.969 292.851 374.003 292.851C374.294 292.851 374.594 292.906 374.668 292.925V291.817C374.543 291.808 374.257 291.798 374.095 291.798C373.246 291.798 372.507 292.278 372.249 292.98H372.175V291.909H371.122V299ZM382.588 299.148C384.029 299.148 385.081 298.428 385.414 297.357L384.361 297.061C384.084 297.8 383.442 298.169 382.588 298.169C381.31 298.169 380.428 297.343 380.377 295.824H385.524V295.362C385.524 292.722 383.955 291.817 382.478 291.817C380.557 291.817 379.283 293.331 379.283 295.51C379.283 297.689 380.539 299.148 382.588 299.148ZM380.377 294.882C380.451 293.779 381.231 292.795 382.478 292.795C383.659 292.795 384.416 293.682 384.416 294.882H380.377ZM387.182 299H388.271V294.513C388.271 293.553 389.028 292.851 390.062 292.851C390.353 292.851 390.653 292.906 390.727 292.925V291.817C390.603 291.808 390.316 291.798 390.155 291.798C389.305 291.798 388.567 292.278 388.308 292.98H388.234V291.909H387.182V299ZM392.019 299H393.108V294.513C393.108 293.553 393.865 292.851 394.899 292.851C395.19 292.851 395.49 292.906 395.564 292.925V291.817C395.439 291.808 395.153 291.798 394.992 291.798C394.142 291.798 393.404 292.278 393.145 292.98H393.071V291.909H392.019V299ZM399.52 299.148C401.441 299.148 402.733 297.689 402.733 295.491C402.733 293.276 401.441 291.817 399.52 291.817C397.6 291.817 396.307 293.276 396.307 295.491C396.307 297.689 397.6 299.148 399.52 299.148ZM399.52 298.169C398.062 298.169 397.397 296.913 397.397 295.491C397.397 294.07 398.062 292.795 399.52 292.795C400.979 292.795 401.644 294.07 401.644 295.491C401.644 296.913 400.979 298.169 399.52 298.169ZM404.397 299H405.486V294.513C405.486 293.553 406.243 292.851 407.277 292.851C407.568 292.851 407.868 292.906 407.942 292.925V291.817C407.817 291.808 407.531 291.798 407.37 291.798C406.52 291.798 405.782 292.278 405.523 292.98H405.449V291.909H404.397V299ZM415.77 299.148C417.691 299.148 418.983 297.689 418.983 295.491C418.983 293.276 417.691 291.817 415.77 291.817C413.85 291.817 412.557 293.276 412.557 295.491C412.557 297.689 413.85 299.148 415.77 299.148ZM415.77 298.169C414.312 298.169 413.647 296.913 413.647 295.491C413.647 294.07 414.312 292.795 415.77 292.795C417.229 292.795 417.894 294.07 417.894 295.491C417.894 296.913 417.229 298.169 415.77 298.169ZM423.527 299.148C425.097 299.148 426.131 298.188 426.316 296.932H425.226C425.023 297.707 424.377 298.169 423.527 298.169C422.235 298.169 421.404 297.098 421.404 295.455C421.404 293.848 422.253 292.795 423.527 292.795C424.487 292.795 425.06 293.386 425.226 294.033H426.316C426.131 292.703 425.005 291.817 423.509 291.817C421.588 291.817 420.314 293.331 420.314 295.491C420.314 297.615 421.533 299.148 423.527 299.148ZM430.789 299.148C432.359 299.148 433.393 298.188 433.577 296.932H432.488C432.285 297.707 431.638 298.169 430.789 298.169C429.496 298.169 428.665 297.098 428.665 295.455C428.665 293.848 429.515 292.795 430.789 292.795C431.749 292.795 432.322 293.386 432.488 294.033H433.577C433.393 292.703 432.266 291.817 430.771 291.817C428.85 291.817 427.576 293.331 427.576 295.491C427.576 297.615 428.795 299.148 430.789 299.148ZM439.639 296.101C439.639 297.43 438.623 298.04 437.811 298.04C436.906 298.04 436.259 297.375 436.259 296.341V291.909H435.17V296.415C435.17 298.224 436.13 299.092 437.46 299.092C438.531 299.092 439.233 298.52 439.565 297.8H439.639V299H440.728V291.909H439.639V296.101ZM442.724 299H443.813V294.513C443.813 293.553 444.57 292.851 445.604 292.851C445.895 292.851 446.195 292.906 446.269 292.925V291.817C446.145 291.808 445.858 291.798 445.697 291.798C444.847 291.798 444.109 292.278 443.85 292.98H443.776V291.909H442.724V299ZM450.318 299.148C451.758 299.148 452.811 298.428 453.143 297.357L452.091 297.061C451.814 297.8 451.172 298.169 450.318 298.169C449.039 298.169 448.157 297.343 448.107 295.824H453.254V295.362C453.254 292.722 451.684 291.817 450.207 291.817C448.287 291.817 447.012 293.331 447.012 295.51C447.012 297.689 448.268 299.148 450.318 299.148ZM448.107 294.882C448.18 293.779 448.961 292.795 450.207 292.795C451.389 292.795 452.146 293.682 452.146 294.882H448.107ZM457.589 299.148C458.955 299.148 459.417 298.298 459.657 297.911H459.786V299H460.839V289.545H459.749V293.036H459.657C459.417 292.666 458.992 291.817 457.607 291.817C455.816 291.817 454.579 293.239 454.579 295.473C454.579 297.726 455.816 299.148 457.589 299.148ZM457.737 298.169C456.37 298.169 455.668 296.969 455.668 295.455C455.668 293.959 456.352 292.795 457.737 292.795C459.066 292.795 459.768 293.866 459.768 295.455C459.768 297.061 459.048 298.169 457.737 298.169ZM463.779 299.074C464.237 299.074 464.61 298.7 464.61 298.243C464.61 297.786 464.237 297.412 463.779 297.412C463.322 297.412 462.949 297.786 462.949 298.243C462.949 298.7 463.322 299.074 463.779 299.074Z" fill="black"/>
<path d="M217.039 174.56C218.106 174.56 218.639 175.093 218.639 176.16V178.72C218.639 179.787 218.106 180.32 217.039 180.32H212.399C211.973 180.32 211.759 180.533 211.759 180.96V210.4C211.759 211.467 211.226 212 210.159 212H207.119C206.053 212 205.519 211.467 205.519 210.4V180.96C205.519 180.533 205.306 180.32 204.879 180.32H167.119C166.053 180.32 165.519 179.787 165.519 178.72V176.16C165.519 175.733 165.626 175.093 165.839 174.24L190.959 101.28C191.279 100.427 191.919 100 192.879 100H196.239C197.413 100 197.839 100.587 197.519 101.76L172.879 173.76C172.773 173.973 172.773 174.187 172.879 174.4C172.986 174.507 173.146 174.56 173.359 174.56H204.879C205.306 174.56 205.519 174.347 205.519 173.92V146.08C205.519 145.013 206.053 144.48 207.119 144.48H210.159C211.226 144.48 211.759 145.013 211.759 146.08V173.92C211.759 174.347 211.973 174.56 212.399 174.56H217.039ZM257.806 213.44C250.232 213.44 244.152 210.987 239.566 206.08C234.979 201.173 232.686 194.667 232.686 186.56V125.44C232.686 117.333 234.979 110.827 239.566 105.92C244.152 101.013 250.232 98.56 257.806 98.56C265.379 98.56 271.512 101.013 276.206 105.92C280.899 110.827 283.246 117.333 283.246 125.44V186.56C283.246 194.667 280.899 201.173 276.206 206.08C271.512 210.987 265.379 213.44 257.806 213.44ZM257.806 207.84C263.672 207.84 268.312 205.973 271.726 202.24C275.246 198.4 277.006 193.333 277.006 187.04V124.96C277.006 118.667 275.246 113.653 271.726 109.92C268.312 106.08 263.672 104.16 257.806 104.16C252.152 104.16 247.566 106.08 244.046 109.92C240.632 113.653 238.926 118.667 238.926 124.96V187.04C238.926 193.333 240.632 198.4 244.046 202.24C247.566 205.973 252.152 207.84 257.806 207.84ZM348.914 174.56C349.981 174.56 350.514 175.093 350.514 176.16V178.72C350.514 179.787 349.981 180.32 348.914 180.32H344.274C343.848 180.32 343.634 180.533 343.634 180.96V210.4C343.634 211.467 343.101 212 342.034 212H338.994C337.928 212 337.394 211.467 337.394 210.4V180.96C337.394 180.533 337.181 180.32 336.754 180.32H298.994C297.928 180.32 297.394 179.787 297.394 178.72V176.16C297.394 175.733 297.501 175.093 297.714 174.24L322.834 101.28C323.154 100.427 323.794 100 324.754 100H328.114C329.288 100 329.714 100.587 329.394 101.76L304.754 173.76C304.648 173.973 304.648 174.187 304.754 174.4C304.861 174.507 305.021 174.56 305.234 174.56H336.754C337.181 174.56 337.394 174.347 337.394 173.92V146.08C337.394 145.013 337.928 144.48 338.994 144.48H342.034C343.101 144.48 343.634 145.013 343.634 146.08V173.92C343.634 174.347 343.848 174.56 344.274 174.56H348.914Z" fill="black"/>
<path d="M262.516 143.875L262.516 157.281H275.922L293.797 139.406L280.391 139.406L280.391 126L262.516 143.875Z" fill="white"/>
<path d="M235.703 184.094L262.516 157.281M262.516 157.281L262.516 143.875L280.391 126L280.391 139.406L293.797 139.406L275.922 157.281L262.516 157.281Z" stroke="black" stroke-width="5" stroke-linecap="round" stroke-linejoin="round"/>
<circle cx="119" cy="15" r="6" fill="white" stroke="black" stroke-width="2"/>
<circle cx="397" cy="393" r="6" fill="white" stroke="black" stroke-width="2"/>
<defs>
<filter id="filter0_ddd" x="0" y="0" width="516" height="416" filterUnits="userSpaceOnUse" color-interpolation-filters="sRGB">
<feFlood flood-opacity="0" result="BackgroundImageFix"/>
<feColorMatrix in="SourceAlpha" type="matrix" values="0 0 0 0 0 0 0 0 0 0 0 0 0 0 0 0 0 0 127 0"/>
<feOffset/>
<feGaussianBlur stdDeviation="0.5"/>
<feColorMatrix type="matrix" values="0 0 0 0 0 0 0 0 0 0 0 0 0 0 0 0 0 0 0.04 0"/>
<feBlend mode="normal" in2="BackgroundImageFix" result="effect1_dropShadow"/>
<feColorMatrix in="SourceAlpha" type="matrix" values="0 0 0 0 0 0 0 0 0 0 0 0 0 0 0 0 0 0 127 0"/>
<feOffset/>
<feGaussianBlur stdDeviation="1"/>
<feColorMatrix type="matrix" values="0 0 0 0 0 0 0 0 0 0 0 0 0 0 0 0 0 0 0.06 0"/>
<feBlend mode="normal" in2="effect1_dropShadow" result="effect2_dropShadow"/>
<feColorMatrix in="SourceAlpha" type="matrix" values="0 0 0 0 0 0 0 0 0 0 0 0 0 0 0 0 0 0 127 0"/>
<feOffset dy="4"/>
<feGaussianBlur stdDeviation="4"/>
<feColorMatrix type="matrix" values="0 0 0 0 0 0 0 0 0 0 0 0 0 0 0 0 0 0 0.04 0"/>
<feBlend mode="normal" in2="effect2_dropShadow" result="effect3_dropShadow"/>
<feBlend mode="normal" in="SourceGraphic" in2="effect3_dropShadow" result="shape"/>
</filter>
</defs>
</svg>
