<svg width="70" height="30" viewBox="0 0 70 30" fill="none" xmlns="http://www.w3.org/2000/svg">
<path d="M14.8081 0.00714225C14.7654 0.011688 14.6035 0.0230513 14.4529 0.0344156C9.12094 0.445806 4.39589 3.80057 2.14125 8.77362C1.46014 10.276 1.05552 11.8261 0.87119 13.6694C0.819488 14.1649 0.821736 15.8173 0.87119 16.3309C1.02629 17.9128 1.32751 19.1993 1.86475 20.5676C3.44952 24.6087 6.78539 27.8203 10.8451 29.2181C12.0005 29.6136 13.0975 29.8454 14.4529 29.9727C14.8868 30.0136 16.5322 30.0068 16.9638 29.9636C18.5396 29.8023 19.8097 29.4954 21.1472 28.959C24.9034 27.4476 27.9425 24.3701 29.4374 20.5676C29.9656 19.2243 30.2781 17.8947 30.4287 16.3537C30.4692 15.9195 30.4871 14.5626 30.4579 14.0785C30.3096 11.7329 29.6577 9.53049 28.5113 7.51217L28.3202 7.17352L29.089 6.39165C29.9005 5.56432 29.9274 5.5325 29.9814 5.29612C30.087 4.837 29.806 4.36197 29.352 4.23697C29.3048 4.2256 28.6574 4.16196 27.9156 4.09832C27.1715 4.03468 26.5578 3.97558 26.5488 3.97104C26.5421 3.96195 26.4859 3.34145 26.423 2.58913C26.36 1.83454 26.2993 1.17995 26.2858 1.13222C26.2274 0.916295 26.0565 0.689004 25.8745 0.588998C25.6856 0.486718 25.4406 0.448081 25.2406 0.498084C25.0068 0.552633 24.9753 0.577635 24.1593 1.40042L23.3861 2.17774L23.0624 1.98909C22.6016 1.72316 22.2194 1.52315 21.8125 1.3345C20.266 0.625364 18.7464 0.220791 16.9863 0.041234C16.6873 0.0139595 15.0329 -0.0133136 14.8081 0.00714225ZM16.1703 1.77771C18.2339 1.87317 20.0749 2.38684 21.8867 3.37099L22.0935 3.48237L21.5608 4.02558C20.8032 4.79382 20.8325 4.70972 20.9224 5.78479C20.9561 6.18482 20.9831 6.51893 20.9831 6.52802C20.9831 6.53711 20.9493 6.52347 20.9089 6.49847C19.4433 5.60296 18.0181 5.12793 16.4086 5.00065C15.7792 4.95065 14.8306 4.98474 14.1765 5.0802C12.4141 5.33931 10.6945 6.12345 9.30976 7.2917C7.23946 9.04182 5.9739 11.517 5.7626 14.2331C5.73787 14.5649 5.73787 15.4468 5.7626 15.7786C5.94018 18.0697 6.86857 20.1925 8.42186 21.8699C9.9774 23.5519 12.0612 24.6383 14.3113 24.952C15.1475 25.0656 16.2827 25.0588 17.1279 24.9292C19.8726 24.5133 22.3543 22.9109 23.8963 20.5585C24.4785 19.6721 24.8899 18.7743 25.1709 17.781C25.4339 16.8537 25.5485 16.015 25.5485 15.0127C25.5485 14.449 25.5305 14.1467 25.4676 13.6648C25.2968 12.3511 24.8337 11.001 24.1571 9.86233C24.0762 9.72596 24.011 9.61004 24.0155 9.6055C24.02 9.60322 24.3482 9.62823 24.7438 9.66232C25.5508 9.73278 25.5935 9.73051 25.8228 9.62141C25.9374 9.56913 26.0183 9.4964 26.4882 9.01909L27.0254 8.47815L27.1333 8.68499C27.2884 8.97819 27.5829 9.59413 27.6885 9.84642C28.6169 12.0716 28.9271 14.549 28.5787 16.956C28.0774 20.3994 26.2454 23.4973 23.4625 25.6134C20.2435 28.0612 16.0624 28.8522 12.1399 27.7612C9.60874 27.0566 7.31814 25.5543 5.59626 23.47C3.12808 20.4812 2.10079 16.5673 2.77066 12.6852C3.29442 9.63731 4.90166 6.84395 7.28443 4.83246C9.4941 2.96643 12.2096 1.90272 15.0824 1.77998C15.6129 1.75498 15.696 1.75499 16.1703 1.77771ZM24.7797 4.10741C24.8112 4.51653 24.8494 4.90291 24.8607 4.96883C24.9191 5.28703 25.1372 5.54614 25.4429 5.64842C25.5103 5.67115 25.8003 5.70524 26.333 5.7507C26.7669 5.78933 27.1288 5.82116 27.14 5.8257C27.149 5.82798 26.6905 6.29846 26.1285 6.86895L25.1034 7.90766L23.9817 7.8122C23.3636 7.75992 22.8556 7.71674 22.8556 7.71446C22.8533 7.71446 22.8106 7.2008 22.7589 6.57348L22.6645 5.43704L23.6895 4.39834C24.2537 3.82785 24.7146 3.36418 24.7191 3.36645C24.7146 3.36872 24.746 3.70284 24.7797 4.10741ZM16.0467 6.75985C17.7146 6.85304 19.2117 7.40308 20.5357 8.40769L20.7493 8.56907L19.5174 9.8146L18.2878 11.0601L18.2159 11.0192C17.5213 10.5919 16.9571 10.3805 16.2198 10.2805C15.9748 10.2464 15.3116 10.2464 15.0734 10.2805C13.9989 10.4283 13.0682 10.8897 12.3264 11.6443C11.2812 12.7011 10.7889 14.1853 10.9912 15.6559C11.1665 16.9332 11.8296 18.0606 12.8502 18.8266C13.7426 19.4971 14.8733 19.8334 15.9478 19.7516C17.5326 19.6289 18.87 18.8038 19.6793 17.4469C20.5852 15.9264 20.5627 13.9444 19.6253 12.4761L19.5354 12.3375L20.7695 11.0897L22.0036 9.84187L22.1632 10.0578C24.2403 12.8648 24.3504 16.656 22.4397 19.5584C22.1295 20.0289 21.8755 20.3426 21.4574 20.7767C20.2368 22.0404 18.6992 22.8541 16.9796 23.1473C16.1119 23.2973 15.1453 23.2927 14.2664 23.1382C12.8435 22.8882 11.5397 22.2768 10.418 21.329C10.1572 21.1108 9.68292 20.6335 9.45138 20.3562C8.35216 19.0493 7.71377 17.5356 7.52944 15.815C7.48898 15.4127 7.48898 14.5967 7.52944 14.1944C7.69578 12.6421 8.23753 11.2442 9.15242 10.0214C9.56828 9.46686 10.1752 8.85317 10.7169 8.43496C12.0657 7.40308 13.6572 6.82122 15.3386 6.75303C15.6466 6.7394 15.7095 6.74167 16.0467 6.75985ZM16.2018 12.0807C16.4311 12.1261 16.7098 12.2193 16.8739 12.3057L16.9976 12.367L15.9703 13.4103C15.3633 14.0285 14.9228 14.4899 14.8935 14.5445C14.7384 14.8195 14.7407 15.2218 14.9025 15.4741C14.9655 15.5741 15.0846 15.6945 15.179 15.7559C15.4465 15.9286 15.8511 15.9264 16.1299 15.7491C16.1748 15.7218 16.6739 15.2331 17.2358 14.6672L18.2586 13.6353L18.3373 13.8058C18.4272 14.0012 18.5014 14.2399 18.5486 14.4945C18.5958 14.7399 18.5958 15.2672 18.5509 15.515C18.3148 16.7605 17.3864 17.7015 16.1546 17.9401C15.9118 17.9856 15.3903 17.9856 15.1475 17.9401C13.9157 17.7015 12.9873 16.7605 12.7513 15.515C12.7041 15.2627 12.7063 14.7399 12.7535 14.4854C12.9086 13.6671 13.3605 12.9739 14.0393 12.5193C14.4305 12.2557 14.8171 12.117 15.3836 12.0352C15.5117 12.0147 16.0197 12.042 16.2018 12.0807Z" fill="black"/>
<path d="M38.546 10.001H39.7486L41.8392 20.0016L41.0232 19.6334L40.4162 16.6923V16.656H40.405L39.2024 10.8738H39.081L37.8424 16.656H37.8312V16.7037L37.1973 19.6311L36.3948 19.9993L38.546 10.001ZM37.9638 16.656L39.1417 11.1556L40.2836 16.656H37.9638ZM39.4834 15.9059L39.1305 14.1103L38.7775 15.9059H39.4834ZM37.3187 19.6448L37.9391 16.7787H40.3083L40.9153 19.6448L40.2724 20.0016L39.7868 17.4674H38.4741L37.9638 20.0016L37.3187 19.6448ZM43.8802 16.0286H45.4245C45.6358 16.0286 45.8337 16.0696 46.018 16.1514C46.2046 16.2332 46.3687 16.3491 46.5103 16.4969C46.6519 16.6446 46.7643 16.8151 46.8452 17.0083C46.9261 17.2014 46.9666 17.4083 46.9666 17.6287V19.6334L46.2608 19.9903V17.5424C46.2608 17.2969 46.1753 17.0878 46.0067 16.9151C45.8359 16.7423 45.6314 16.656 45.3863 16.656H44.5973V20.0016L43.8802 19.6448V16.0286ZM46.9441 12.3261V14.4058C46.9441 14.6104 46.9059 14.8058 46.8272 14.9899C46.7508 15.174 46.6451 15.3354 46.5125 15.4695C46.3776 15.6059 46.2248 15.7104 46.0495 15.79C45.8764 15.8673 45.6876 15.9059 45.4852 15.9059H43.8802V10.8147H45.4852C45.6876 10.8147 45.8764 10.8533 46.0495 10.9306C46.2248 11.0079 46.3776 11.117 46.5125 11.2579C46.6474 11.3965 46.7508 11.5579 46.8272 11.742C46.9059 11.9261 46.9441 12.1216 46.9441 12.3261ZM44.5996 11.5647V15.0945H45.4987C45.701 15.0945 45.8741 15.0172 46.0202 14.8604C46.1664 14.7058 46.2405 14.5126 46.2405 14.2831V12.3761C46.2405 12.1466 46.1664 11.9534 46.0202 11.7988C45.8741 11.642 45.701 11.5647 45.4987 11.5647H44.5996V11.5647ZM47.7691 12.3761V14.2831C47.7691 14.5945 47.7174 14.8877 47.6117 15.1627C47.5061 15.4377 47.36 15.6809 47.1734 15.8945C47.369 16.1082 47.5218 16.3559 47.6365 16.64C47.7511 16.9219 47.8073 17.2242 47.8073 17.5446V19.9925L47.0902 19.6357V17.631C47.0902 17.2378 46.9756 16.8901 46.7441 16.5855C46.5125 16.2832 46.2248 16.0764 45.8741 15.9695C46.2136 15.8786 46.4945 15.69 46.7171 15.4036C46.9396 15.1172 47.052 14.7854 47.052 14.4081V12.3284C47.052 12.1079 47.0116 11.8988 46.9306 11.7011C46.8497 11.5033 46.7373 11.3329 46.5957 11.1851C46.4541 11.0374 46.2877 10.9192 46.0989 10.8328C45.9078 10.7465 45.7055 10.7056 45.4852 10.7056H43.8802H43.7589V10.8169V15.9082V16.0195V19.6493L43.0553 20.0062V16.6605V15.0968V11.567V10.001H44.5973H45.4965C45.8134 10.001 46.1079 10.0646 46.3822 10.1919C46.6586 10.3192 46.8992 10.4897 47.106 10.7033C47.3128 10.917 47.4746 11.167 47.5915 11.4533C47.7107 11.7397 47.7691 12.0466 47.7691 12.3761ZM49.8462 16.0286H51.3905C51.6018 16.0286 51.7996 16.0696 51.9861 16.1514C52.1727 16.2332 52.3346 16.3491 52.4762 16.4969C52.6178 16.6446 52.7302 16.8151 52.8111 17.0083C52.892 17.2014 52.9325 17.4083 52.9325 17.6287V19.6334L52.2289 19.9903V17.5424C52.2289 17.2969 52.1435 17.0878 51.9727 16.9151C51.8018 16.7423 51.5973 16.656 51.3522 16.656H50.5632V20.0016L49.8462 19.6448V16.0286V16.0286ZM52.91 12.3261V14.4058C52.91 14.6104 52.8718 14.8058 52.7931 14.9899C52.7167 15.174 52.6111 15.3354 52.4784 15.4695C52.3436 15.6059 52.1907 15.7104 52.0176 15.79C51.8423 15.8673 51.6557 15.9059 51.4511 15.9059H49.8462V10.8147H51.4511C51.6534 10.8147 51.8423 10.8533 52.0176 10.9306C52.1907 11.0079 52.3436 11.117 52.4784 11.2579C52.6133 11.3965 52.7167 11.5579 52.7931 11.742C52.8718 11.9261 52.91 12.1216 52.91 12.3261ZM50.5632 11.5647V15.0945H51.4624C51.6647 15.0945 51.84 15.0172 51.9861 14.8604C52.1322 14.7058 52.2042 14.5126 52.2042 14.2831V12.3761C52.2042 12.1466 52.1322 11.9534 51.9861 11.7988C51.84 11.642 51.6647 11.5647 51.4624 11.5647H50.5632V11.5647ZM53.735 12.3761V14.2831C53.735 14.5945 53.6833 14.8877 53.5777 15.1627C53.472 15.4377 53.3259 15.6809 53.1415 15.8945C53.3349 16.1082 53.4877 16.3559 53.6024 16.64C53.717 16.9219 53.7732 17.2242 53.7732 17.5446V19.9925L53.0561 19.6357V17.631C53.0561 17.2378 52.9415 16.8901 52.71 16.5855C52.4784 16.2832 52.1907 16.0764 51.84 15.9695C52.1817 15.8786 52.4627 15.69 52.6852 15.4036C52.9078 15.1172 53.0202 14.7854 53.0202 14.4081V12.3284C53.0202 12.1079 52.9797 11.8988 52.8988 11.7011C52.8179 11.5033 52.7055 11.3329 52.5638 11.1851C52.4222 11.0374 52.2559 10.9192 52.0648 10.8328C51.8738 10.7465 51.6714 10.7056 51.4511 10.7056H49.8462H49.7248V10.8169V15.9082V16.0195V19.6493L49.0212 20.0062V16.6605V15.0968V11.567V10.001H50.5632H51.4624C51.7793 10.001 52.0738 10.0646 52.3503 10.1919C52.6245 10.3192 52.8651 10.4897 53.0719 10.7033C53.2787 10.917 53.4405 11.167 53.5574 11.4533C53.6766 11.7397 53.735 12.0466 53.735 12.3761ZM57.4058 10.0146H57.516C57.8486 10.0146 58.1611 10.0783 58.4578 10.2033C58.7523 10.3305 59.0086 10.5056 59.2288 10.726C59.4469 10.9488 59.62 11.2079 59.7458 11.5079C59.8717 11.8079 59.9324 12.1261 59.9324 12.4602V17.5424C59.9324 17.8788 59.8695 18.197 59.7458 18.4947C59.62 18.7947 59.4469 19.0538 59.2288 19.2766C59.0086 19.4993 58.7523 19.6721 58.4578 19.7993C58.1611 19.9266 57.8486 19.9903 57.516 19.9903H57.4058C57.0731 19.9903 56.7607 19.9266 56.4639 19.7993C56.1672 19.6721 55.911 19.4993 55.6929 19.2766C55.4726 19.0561 55.3018 18.7947 55.1759 18.4947C55.05 18.1947 54.9871 17.8765 54.9871 17.5424V12.4602C54.9871 12.1238 55.05 11.8056 55.1759 11.5079C55.3018 11.2101 55.4726 10.9488 55.6929 10.726C55.911 10.5056 56.1672 10.3305 56.4639 10.2033C56.7607 10.0783 57.0731 10.0146 57.4058 10.0146ZM59.2513 17.6651V12.3989C59.2513 12.1625 59.2064 11.9397 59.1187 11.7284C59.0288 11.5193 58.9096 11.3374 58.7613 11.1874C58.6107 11.0351 58.4331 10.9147 58.2263 10.826C58.0195 10.7351 57.8037 10.6919 57.5766 10.6919H57.417C57.181 10.6919 56.9607 10.7374 56.7562 10.826C56.5494 10.9169 56.3718 11.0374 56.2212 11.1874C56.0706 11.3397 55.9514 11.5193 55.8615 11.7284C55.7716 11.9375 55.7289 12.1602 55.7289 12.3989V17.6651C55.7289 17.9038 55.7738 18.1242 55.8615 18.3288C55.9514 18.5334 56.0706 18.7129 56.2212 18.8629C56.3718 19.0152 56.5494 19.1357 56.7562 19.2243C56.963 19.3152 57.1833 19.3607 57.417 19.3607H57.5766C57.8037 19.3607 58.0195 19.3152 58.2263 19.2243C58.4331 19.1334 58.6107 19.0129 58.7613 18.8629C58.9119 18.7106 59.031 18.5334 59.1187 18.3288C59.2086 18.1242 59.2513 17.9038 59.2513 17.6651ZM57.417 10.8147H57.5766C57.7947 10.8147 57.9993 10.8556 58.1903 10.9374C58.3814 11.0192 58.5455 11.1329 58.6871 11.2761C58.8287 11.4192 58.9411 11.5874 59.022 11.7806C59.103 11.9738 59.1434 12.1807 59.1434 12.4011V17.6674C59.1434 17.8878 59.103 18.0947 59.022 18.2901C58.9411 18.4833 58.8287 18.6515 58.6871 18.7947C58.5455 18.9379 58.3791 19.0516 58.1903 19.1334C57.9993 19.2152 57.7969 19.2561 57.5766 19.2561H57.417C57.199 19.2561 56.9944 19.2152 56.8034 19.1334C56.6123 19.0516 56.4482 18.9379 56.3066 18.7947C56.165 18.6515 56.0526 18.4833 55.9717 18.2901C55.8907 18.0969 55.8503 17.8901 55.8503 17.6674V12.4011C55.8503 12.1807 55.8907 11.9738 55.9717 11.7806C56.0526 11.5874 56.165 11.4192 56.3066 11.2761C56.4482 11.1329 56.6145 11.0192 56.8034 10.9374C56.9944 10.8556 57.199 10.8147 57.417 10.8147ZM58.3904 17.5424V12.4602C58.3904 12.2148 58.305 12.0057 58.1364 11.8329C57.9655 11.6602 57.761 11.5738 57.516 11.5738H57.4058C57.163 11.5738 56.9562 11.6602 56.7854 11.8329C56.6146 12.0057 56.5291 12.2148 56.5291 12.4602V17.5424C56.5291 17.7878 56.6146 17.9969 56.7854 18.1697C56.9562 18.3424 57.1608 18.4288 57.4058 18.4288H57.516C57.7587 18.4288 57.9655 18.3424 58.1364 18.1697C58.305 17.9969 58.3904 17.7878 58.3904 17.5424ZM66.5187 19.2266H66.6289L68.3418 10.3692L69.1668 10.001L67.3685 19.4107L67.2583 20.0016H65.9096L65.7994 19.3993L65.1543 15.9195L64.5114 19.3993L64.4012 20.0016H63.0525L62.9424 19.4107L61.1441 10.001L61.9465 10.3692L63.6482 19.2266H63.7561L65.1543 12.3375L66.5187 19.2266ZM65.2172 12.0307H65.0958L63.7111 18.9197L62.0567 10.3715L62.7131 10.0033L63.7111 15.2445L64.3787 11.7011L64.4754 11.1238H65.8376L65.9343 11.7011L66.6019 15.2445L67.6 10.0033L68.2204 10.3715L66.5794 18.9197L65.2172 12.0307Z" fill="black"/>
</svg>
