<svg width="100" height="100" viewBox="0 0 100 100" fill="none" xmlns="http://www.w3.org/2000/svg">
<rect width="100" height="100" fill="white"/>
<path fill-rule="evenodd" clip-rule="evenodd" d="M19.375 11C19.375 8.99797 20.998 7.375 23 7.375H77C79.002 7.375 80.625 8.99797 80.625 11V83C80.625 85.002 79.002 86.625 77 86.625H23C20.998 86.625 19.375 85.002 19.375 83V11ZM23 8.625C21.6883 8.625 20.625 9.68833 20.625 11V83C20.625 84.3117 21.6883 85.375 23 85.375H77C78.3117 85.375 79.375 84.3117 79.375 83V11C79.375 9.68832 78.3117 8.625 77 8.625H23Z" fill="#707580"/>
<path fill-rule="evenodd" clip-rule="evenodd" d="M29.25 17.25V28.75H40.75V17.25H29.25ZM29 16C28.4477 16 28 16.4477 28 17V29C28 29.5523 28.4477 30 29 30H41C41.5523 30 42 29.5523 42 29V17C42 16.4477 41.5523 16 41 16H29Z" fill="#707580"/>
<path fill-rule="evenodd" clip-rule="evenodd" d="M72 40.625H28V39.375H72V40.625ZM59.68 47.625H28V46.375H59.68V47.625Z" fill="#707580"/>
<path fill-rule="evenodd" clip-rule="evenodd" d="M44.4205 54.9625L32.9795 65.3634L28.0581 60.442L28.942 59.5581L33.0206 63.6367L43.5796 54.0376L44.4205 54.9625Z" fill="#707580"/>
<path fill-rule="evenodd" clip-rule="evenodd" d="M68.0558 73.7637C68.053 73.9087 68.0474 74.0577 68.042 74.2016C68.038 74.3087 68.0341 74.4129 68.0315 74.5106C68.0247 74.7672 68.0257 75.0054 68.0474 75.2274C68.0723 75.2592 68.1037 75.2981 68.1422 75.3459L68.1498 75.3553C68.2585 75.4902 68.4089 75.6773 68.5372 75.866C68.6499 76.0318 68.8069 76.2839 68.8446 76.5355C68.8656 76.6753 68.8617 76.9022 68.6921 77.0945C68.529 77.2795 68.3083 77.3222 68.1559 77.3283C67.6985 77.3466 67.3648 77.0711 67.1656 76.8838C67.0935 76.8159 67.017 76.7373 66.9517 76.6702C66.9249 76.6427 66.9001 76.6172 66.8782 76.5951C66.791 76.5073 66.7273 76.4494 66.6736 76.4121C66.6433 76.391 66.6158 76.3727 66.591 76.3569C66.5872 76.3659 66.5833 76.3753 66.5792 76.3851C66.537 76.486 66.4801 76.6223 66.4089 76.761C66.1326 77.2999 65.6569 77.7615 65.1484 78.1116C64.637 78.4638 64.0526 78.7306 63.5154 78.8555C62.754 79.0326 61.9569 79.0282 61.244 79.0243C61.1411 79.0237 61.0401 79.0232 60.9411 79.0232C60.8604 79.0232 60.7685 79.0276 60.6553 79.0331C60.5469 79.0383 60.422 79.0443 60.2955 79.0449C60.0534 79.0461 59.7412 79.0294 59.4598 78.9088C59.3858 78.8771 59.3217 78.8299 59.2932 78.8086C59.2527 78.7783 59.2095 78.7429 59.167 78.7058C59.0827 78.6323 58.9853 78.5384 58.9 78.4414C58.8306 78.3624 58.7125 78.2196 58.6586 78.056C58.6329 77.9778 58.5804 77.7701 58.7111 77.5621C58.8491 77.3424 59.0741 77.3039 59.1769 77.2979C59.3358 77.2885 59.5151 77.2919 59.6659 77.2947C59.7297 77.2959 59.7885 77.297 59.8384 77.297H62.407C62.4972 77.297 62.5941 77.3037 62.6775 77.3099C62.6926 77.311 62.7073 77.3121 62.7219 77.3132C62.7938 77.3186 62.86 77.3236 62.9263 77.3266C63.0053 77.3301 63.0704 77.33 63.1232 77.3257C63.149 77.3236 63.1686 77.3207 63.1829 77.3178C63.1973 77.3148 63.203 77.3126 63.203 77.3126C63.2408 77.2974 63.3054 77.266 63.3279 77.0118C63.3386 76.8906 63.3353 76.7531 63.327 76.5978C63.3251 76.5635 63.3229 76.5267 63.3206 76.4884C63.3135 76.371 63.3056 76.2406 63.3056 76.1294V75.3307C63.1623 75.3513 63.0109 75.3869 62.8477 75.4341C62.6931 75.4789 62.5382 75.5307 62.3721 75.5863C62.3565 75.5915 62.3408 75.5968 62.3249 75.6021C62.1452 75.6622 61.9524 75.7259 61.7568 75.7785C60.3917 76.1455 56.7973 77.1626 54.9438 77.6871C54.6116 77.7811 54.3352 77.8593 54.1377 77.9151C53.872 77.9901 53.5957 77.8355 53.5207 77.5698C53.4456 77.304 53.6002 77.0278 53.8659 76.9527C54.062 76.8973 54.3369 76.8196 54.6678 76.7259C56.5191 76.2021 60.1246 75.1818 61.4971 74.8128C61.6603 74.7689 61.827 74.7142 62.0078 74.6537C62.024 74.6483 62.0404 74.6428 62.0569 74.6373C62.2196 74.5828 62.3941 74.5243 62.5699 74.4735C62.9565 74.3617 63.3987 74.2709 63.8668 74.3287C64.1215 74.3601 64.2294 74.5575 64.2427 74.5819L64.2434 74.5832C64.2721 74.6349 64.2846 74.6799 64.2887 74.6947C64.2984 74.7303 64.302 74.7597 64.3031 74.7679C64.3059 74.7903 64.3069 74.8103 64.3073 74.819C64.3083 74.8404 64.3087 74.8645 64.3089 74.8856C64.3094 74.9299 64.3091 74.9867 64.3086 75.0415C64.308 75.097 64.3073 75.1536 64.3067 75.1986L64.3059 75.256L64.3056 75.2747L64.3056 75.2804L64.3056 75.282L64.3056 76.1294C64.3056 76.208 64.3107 76.2927 64.3171 76.3986C64.3198 76.443 64.3227 76.4912 64.3255 76.5441C64.3343 76.7082 64.3412 76.9044 64.324 77.0998C64.3133 77.221 64.2913 77.3581 64.2476 77.4959C64.3607 77.4323 64.4726 77.3628 64.5813 77.288C65.0064 76.9953 65.343 76.6481 65.5191 76.3047C65.5707 76.2041 65.6086 76.1137 65.6494 76.0162C65.6617 75.9869 65.6743 75.9569 65.6876 75.9257L65.6888 75.923C65.734 75.8172 65.8117 75.6354 65.9452 75.4988C66.0232 75.419 66.1278 75.3451 66.2629 75.3055C66.3963 75.2664 66.5257 75.2707 66.6394 75.2943C66.7854 75.3247 66.9296 75.3925 67.0698 75.477C67.0694 75.4745 67.0691 75.4719 67.0687 75.4693C67.0243 75.1362 67.0236 74.7983 67.0319 74.4842C67.0351 74.3612 67.0395 74.2456 67.0437 74.1341C67.0509 73.9459 67.0576 73.7693 67.0576 73.5877C67.0576 73.4201 67.1084 73.2584 67.2128 73.1224C67.3121 72.9932 67.4386 72.9146 67.5505 72.8664C67.763 72.7747 68.0055 72.7572 68.1963 72.758C68.5924 72.7594 69.0191 72.8449 69.1979 72.8842C70.0821 73.0782 70.9556 73.6336 71.5742 74.3059C71.6184 74.2756 71.6643 74.2466 71.7107 74.2194C71.8879 74.1153 72.1039 74.0162 72.3197 73.9452C72.5248 73.8777 72.7805 73.8184 73.0198 73.8384C73.1425 73.8487 73.3001 73.883 73.4437 73.9855C73.6016 74.0982 73.7011 74.2643 73.7327 74.4536C73.7796 74.7353 73.7796 75.002 73.7055 75.2643C73.6317 75.5258 73.4951 75.7444 73.3277 75.9452C73.2867 75.9945 73.2598 76.0666 73.2046 76.2752C73.2027 76.2825 73.2007 76.2901 73.1987 76.2979C73.1528 76.4722 73.0785 76.7549 72.8801 76.9974C72.8175 77.0739 72.7377 77.2128 72.664 77.3859C72.5917 77.5559 72.5414 77.7212 72.5211 77.8326C72.4837 78.0382 72.4002 78.23 72.2496 78.3812C72.0999 78.5316 71.9233 78.6022 71.77 78.6358C71.6226 78.668 71.4768 78.6701 71.3654 78.6683C71.2952 78.6671 71.2494 78.6652 71.2089 78.6635C71.1639 78.6617 71.1256 78.6601 71.0676 78.6601C70.7915 78.6601 70.5676 78.4362 70.5676 78.1601C70.5676 77.8839 70.7915 77.6601 71.0676 77.6601C71.1276 77.6601 71.1866 77.662 71.2382 77.6639C71.2462 77.6642 71.2541 77.6645 71.2618 77.6648C71.3058 77.6664 71.344 77.6678 71.3819 77.6684C71.4556 77.6696 71.5035 77.6671 71.5355 77.6625C71.5361 77.6598 71.5366 77.6569 71.5372 77.6538C71.5674 77.4879 71.6242 77.2988 71.6947 77.1159C71.6252 77.1064 71.5581 77.0843 71.4962 77.0508C71.2964 76.9428 71.2136 76.7522 71.1813 76.6675C71.1044 76.4665 71.077 76.2054 71.0674 75.9852C71.0572 75.7526 71.0647 75.5026 71.0853 75.2858C71.0747 75.2697 71.0653 75.2563 71.0576 75.246C70.5676 74.5926 69.7501 74.0292 68.9835 73.8609C68.8163 73.8242 68.4764 73.759 68.1925 73.7579C68.1372 73.7577 68.0919 73.7601 68.0558 73.7637ZM72.3598 75.6381C72.4071 75.5274 72.4708 75.4115 72.5595 75.305C72.6695 75.173 72.7192 75.0774 72.7432 74.9925C72.7539 74.9544 72.7617 74.9106 72.7642 74.8574C72.7256 74.8666 72.6816 74.8788 72.6323 74.8951C72.4845 74.9437 72.3335 75.0133 72.2174 75.0815C72.1887 75.0984 72.1642 75.114 72.1438 75.1278C72.2143 75.2683 72.2831 75.4231 72.3391 75.5788C72.3461 75.5982 72.353 75.618 72.3598 75.6381ZM72.1153 76.3104L72.1145 76.3082C72.1202 76.3195 72.1198 76.3221 72.1153 76.3104ZM72.9405 74.8355L72.9384 74.8351ZM71.5262 77.6947L71.5267 77.6937ZM68.12 76.3288L68.1176 76.329Z" fill="#707580"/>
<path d="M90 98C90 99.1046 72.0914 100 50 100C27.9086 100 10 99.1046 10 98C10 96.8954 27.9086 96 50 96C72.0914 96 90 96.8954 90 98Z" fill="#EDEFF2"/>
</svg>
