<svg width="365" height="365" viewBox="0 0 365 365" fill="none" xmlns="http://www.w3.org/2000/svg">
<path d="M365 313.571V313.571C336.597 313.571 313.571 336.597 313.571 365V365" stroke="#E4E6EB" stroke-width="8.57143"/>
<path d="M365 262.143L325.143 262.143C290.349 262.143 262.143 290.349 262.143 325.143L262.143 365" stroke="#E4E6EB" stroke-width="8.57143"/>
<path d="M365 210.714L273.714 210.714C238.92 210.714 210.714 238.92 210.714 273.714L210.714 365" stroke="#E4E6EB" stroke-width="8.57143"/>
<path d="M365 159.286L222.286 159.286C187.492 159.286 159.286 187.492 159.286 222.286L159.286 365" stroke="#E4E6EB" stroke-width="8.57143"/>
<path d="M365 107.857L170.857 107.857C136.063 107.857 107.857 136.063 107.857 170.857L107.857 365" stroke="#E4E6EB" stroke-width="8.57143"/>
<path d="M365 56.4287L119.429 56.4287C84.6347 56.4287 56.4286 84.6347 56.4286 119.429L56.4286 365" stroke="#E4E6EB" stroke-width="8.57143"/>
<path d="M365 5L68 4.99997C33.2061 4.99997 5.00004 33.206 5.00004 68L5.00001 365" stroke="#E4E6EB" stroke-width="8.57143"/>
</svg>
