<?xml version="1.0" standalone="no"?>
<!DOCTYPE svg PUBLIC "-//W3C//DTD SVG 20010904//EN"
 "http://www.w3.org/TR/2001/REC-SVG-20010904/DTD/svg10.dtd">
<svg version="1.0" xmlns="http://www.w3.org/2000/svg"
 width="1249.000000pt" height="994.000000pt" viewBox="0 0 1249.000000 994.000000"
 preserveAspectRatio="xMidYMid meet">

<g transform="translate(0.000000,994.000000) scale(0.100000,-0.100000)"
fill="#000000" stroke="none">
<path d="M2710 9879 c-38 -15 -88 -68 -101 -106 l-11 -33 -1179 0 -1179 0 0
-4760 0 -4760 4664 0 4664 0 7 -27 c25 -100 148 -152 245 -103 41 21 90 82 90
112 0 17 58 18 1180 18 l1180 0 0 4760 0 4760 -4660 0 -4660 0 -15 37 c-39 93
-136 137 -225 102z m131 -62 c60 -40 76 -105 39 -164 -35 -58 -102 -78 -160
-48 -73 38 -94 125 -43 185 46 55 108 65 164 27z m-231 -161 c6 -19 28 -50 49
-69 89 -80 224 -50 273 59 l19 44 4634 0 4635 0 0 -4710 0 -4710 -1152 0
-1153 0 -19 46 c-59 143 -284 130 -321 -19 l-7 -27 -4639 0 -4639 0 0 4710 0
4710 1154 0 1154 0 12 -34z m7218 -9330 c30 -29 35 -41 35 -79 -3 -155 -210
-175 -247 -24 -10 42 23 109 65 130 51 26 104 16 147 -27z"/>
<path d="M6072 7600 c-207 -54 -355 -204 -423 -430 l-23 -75 -4 -845 c-2 -560
0 -876 7 -937 33 -282 199 -485 451 -549 87 -23 263 -22 350 1 241 63 412 262
450 521 5 38 10 269 10 514 l0 445 159 160 c87 88 162 169 165 181 4 13 -1 30
-15 47 -20 27 -21 27 -164 27 l-143 0 -5 218 c-3 158 -9 233 -21 277 -63 231
-234 400 -453 449 -98 22 -249 20 -341 -4z m314 -134 c78 -21 148 -63 208
-126 88 -92 136 -212 136 -345 l0 -60 -210 -210 -210 -210 0 -165 0 -166 -261
-259 c-143 -143 -262 -262 -265 -265 -3 -2 -3 322 -2 720 l3 725 27 69 c60
155 162 252 306 291 63 18 205 18 268 1z m387 -913 c6 -9 42 -13 120 -13 l112
0 -165 -165 -165 -165 -120 2 -120 3 -3 120 -3 119 163 163 163 163 5 -107 c3
-60 9 -114 13 -120z m-45 -880 c-4 -403 -5 -420 -26 -477 -66 -175 -196 -281
-375 -306 -318 -45 -546 168 -547 510 l0 75 307 307 308 308 168 0 168 0 -3
-417z"/>
<path d="M4597 7578 c-10 -8 -147 -392 -334 -933 -336 -975 -351 -1030 -307
-1062 14 -10 115 -13 501 -13 l483 0 0 -383 c0 -285 3 -386 12 -395 16 -16
120 -16 136 0 9 9 12 110 12 395 l0 383 66 0 c92 0 104 9 104 73 0 29 -5 58
-12 65 -7 7 -42 12 -85 12 l-73 0 0 363 c0 269 -3 366 -12 375 -16 16 -120 16
-136 0 -9 -9 -12 -106 -12 -375 l0 -363 -410 0 c-225 0 -410 2 -410 3 0 2 140
411 310 909 171 498 310 915 310 926 0 11 -7 23 -16 26 -28 11 -110 6 -127 -6z"/>
<path d="M7902 7573 c-29 -24 -652 -1834 -659 -1914 -9 -95 -46 -89 518 -89
l489 0 2 -392 3 -393 49 -3 c27 -2 60 -1 73 3 l23 5 0 390 0 390 69 0 c100 0
101 1 101 75 0 74 -1 75 -101 75 l-69 0 -2 373 -3 372 -70 0 -70 0 -5 -370 -5
-370 -407 -3 c-300 -2 -408 1 -408 9 0 6 140 421 312 922 295 864 310 911 293
923 -27 20 -108 18 -133 -3z"/>
<path d="M6680 3597 c-14 -7 -29 -26 -35 -45 -5 -17 -15 -32 -22 -32 -7 0 -13
-11 -13 -25 0 -16 6 -25 15 -25 12 0 15 -16 15 -85 l0 -85 30 0 30 0 0 84 c0
80 1 85 23 88 14 2 23 11 25 26 3 18 -1 22 -23 22 -20 0 -26 4 -23 18 2 9 13
18 25 20 30 4 37 39 9 46 -28 8 -27 8 -56 -7z"/>
<path d="M4810 3445 l0 -145 29 0 c28 0 30 2 33 48 l3 47 58 5 c47 4 62 10 77
30 30 39 26 95 -9 131 -28 27 -34 29 -110 29 l-81 0 0 -145z m148 83 c17 -17
15 -53 -3 -68 -8 -6 -29 -13 -47 -13 -32 -2 -33 -1 -36 46 l-3 47 38 0 c22 0
44 -5 51 -12z"/>
<path d="M7670 3544 c0 -40 -2 -45 -17 -39 -67 30 -113 12 -134 -52 -32 -99
53 -190 129 -137 20 14 22 14 22 0 0 -10 9 -16 25 -16 l25 0 0 145 0 145 -25
0 c-23 0 -25 -4 -25 -46z m-9 -100 c6 -19 6 -37 -1 -60 -9 -28 -17 -34 -39
-34 -20 0 -31 7 -39 25 -14 31 -15 37 -2 69 14 37 66 37 81 0z"/>
<path d="M6400 3550 c0 -11 -7 -23 -15 -26 -8 -4 -15 -17 -15 -30 0 -15 6 -24
15 -24 12 0 15 -15 15 -75 0 -63 3 -76 19 -85 24 -12 81 -13 81 -1 0 20 -13
41 -25 41 -17 0 -25 23 -25 75 0 38 3 44 23 47 14 2 23 11 25 26 3 18 -1 22
-22 22 -21 0 -26 5 -26 25 0 20 -5 25 -25 25 -18 0 -25 -5 -25 -20z"/>
<path d="M5092 3504 c-12 -8 -22 -21 -22 -28 0 -20 40 -27 58 -10 20 21 57 14
57 -11 0 -16 -9 -21 -48 -27 -27 -3 -55 -12 -63 -18 -19 -16 -18 -75 2 -94 18
-18 66 -21 95 -6 13 7 19 7 19 0 0 -5 14 -10 30 -10 l30 0 0 89 c0 85 -1 91
-26 110 -32 25 -100 28 -132 5z m98 -123 c0 -25 -24 -43 -52 -39 -30 4 -29 29
2 45 35 18 50 16 50 -6z"/>
<path d="M5320 3495 c-15 -16 -24 -40 -27 -72 -7 -87 52 -141 120 -108 26 13
27 13 27 -16 0 -23 -5 -30 -27 -35 -14 -4 -34 -2 -44 5 -23 14 -69 15 -69 1 0
-5 9 -19 20 -30 28 -28 117 -28 154 1 26 20 26 22 26 150 l0 129 -30 0 c-21 0
-30 -5 -30 -17 0 -15 -1 -15 -18 0 -28 25 -74 21 -102 -8z m109 -39 c17 -21
10 -87 -11 -100 -39 -24 -82 40 -60 89 13 28 52 34 71 11z"/>
<path d="M5594 3508 c-66 -32 -64 -166 3 -197 45 -20 101 -14 131 16 l26 27
-27 9 c-20 6 -31 5 -43 -7 -8 -9 -24 -16 -34 -16 -20 0 -52 38 -44 52 3 4 36
8 75 8 l69 0 0 31 c0 46 -47 89 -97 88 -21 0 -48 -5 -59 -11z m90 -50 c14 -24
5 -30 -43 -26 -41 3 -41 3 -25 26 18 26 51 26 68 0z"/>
<path d="M5890 3410 l0 -110 25 0 c24 0 25 3 25 59 0 80 13 111 44 111 34 0
46 -26 46 -104 l0 -66 31 0 31 0 -4 89 c-2 70 -7 93 -22 110 -23 26 -81 28
-108 4 -17 -15 -18 -15 -18 0 0 11 -8 17 -25 17 l-25 0 0 -110z"/>
<path d="M6159 3491 c-25 -25 -29 -37 -29 -81 0 -44 4 -56 29 -81 23 -23 38
-29 71 -29 52 0 76 13 95 50 43 82 -5 169 -93 170 -35 0 -49 -6 -73 -29z m101
-31 c11 -11 20 -33 20 -50 0 -29 -29 -70 -49 -70 -21 0 -41 34 -41 70 0 36 20
70 41 70 5 0 18 -9 29 -20z"/>
<path d="M6799 3491 c-25 -25 -29 -37 -29 -81 0 -44 4 -56 29 -81 38 -38 106
-41 146 -6 51 43 41 157 -14 187 -11 5 -38 10 -61 10 -33 0 -48 -6 -71 -29z
m103 -28 c31 -28 20 -103 -18 -117 -44 -17 -74 75 -37 116 20 22 31 23 55 1z"/>
<path d="M7020 3436 c0 -69 4 -88 21 -110 24 -31 72 -35 101 -9 17 15 18 15
18 0 0 -12 9 -17 30 -17 l30 0 0 110 0 110 -30 0 -29 0 -3 -76 c-2 -60 -7 -79
-20 -88 -13 -8 -23 -8 -35 0 -14 9 -19 28 -21 88 l-3 76 -29 0 -30 0 0 -84z"/>
<path d="M7270 3410 l0 -110 30 0 30 0 0 74 c0 80 11 100 52 94 22 -3 23 -8
26 -85 l3 -83 29 0 30 0 0 90 c0 77 -3 93 -20 110 -24 24 -77 26 -102 3 -17
-15 -18 -15 -18 0 0 12 -9 17 -30 17 l-30 0 0 -110z"/>
<path d="M5086 2834 c-9 -8 -16 -24 -16 -35 0 -10 -7 -19 -15 -19 -8 0 -15 -7
-15 -15 0 -8 7 -15 15 -15 12 0 15 -15 15 -75 0 -60 3 -75 15 -75 12 0 15 15
15 74 0 66 2 74 21 79 23 6 17 27 -7 27 -8 0 -14 9 -14 20 0 13 7 20 20 20 11
0 20 7 20 15 0 20 -34 19 -54 -1z"/>
<path d="M1070 2825 c0 -11 11 -15 40 -15 l40 0 0 -105 c0 -63 4 -105 10 -105
6 0 10 42 10 105 l0 105 40 0 c29 0 40 4 40 15 0 12 -17 15 -90 15 -73 0 -90
-3 -90 -15z"/>
<path d="M1290 2721 c0 -99 3 -121 15 -121 11 0 15 17 17 71 3 64 5 73 26 80
39 15 62 -20 62 -91 0 -33 4 -60 10 -60 6 0 10 31 10 73 0 59 -4 77 -18 90
-21 19 -49 22 -72 7 -12 -8 -16 -2 -20 27 -3 20 -11 38 -17 41 -10 3 -13 -25
-13 -117z"/>
<path d="M3860 2720 c0 -73 4 -120 10 -120 6 0 10 47 10 120 0 73 -4 120 -10
120 -6 0 -10 -47 -10 -120z"/>
<path d="M4327 2833 c-4 -3 -7 -57 -7 -120 0 -92 3 -113 14 -113 10 0 16 13
18 37 2 20 8 38 13 39 6 2 23 -14 39 -36 17 -22 38 -40 49 -40 15 0 11 9 -24
51 l-42 50 39 40 c52 53 21 50 -33 -3 l-43 -42 0 72 c0 66 -6 83 -23 65z"/>
<path d="M4497 2834 c-9 -10 2 -24 19 -24 8 0 14 7 14 15 0 15 -21 21 -33 9z"/>
<path d="M5700 2793 c0 -44 -1 -45 -18 -30 -28 25 -67 21 -91 -9 -28 -36 -29
-106 -1 -134 22 -22 69 -26 89 -7 11 10 14 10 18 0 14 -39 23 1 23 107 0 73
-4 120 -10 120 -5 0 -10 -21 -10 -47z m-7 -84 c13 -35 -7 -77 -38 -85 -33 -8
-52 9 -61 53 -5 26 -1 37 20 58 25 25 29 26 49 12 12 -8 26 -25 30 -38z"/>
<path d="M6520 2823 c0 -10 -3 -29 -6 -43 -6 -23 -5 -24 9 -10 20 19 26 61 10
67 -8 3 -13 -3 -13 -14z"/>
<path d="M7152 2828 c7 -19 38 -22 38 -4 0 10 -9 16 -21 16 -12 0 -19 -5 -17
-12z"/>
<path d="M8710 2721 c0 -99 3 -121 15 -121 11 0 15 17 17 71 3 63 6 73 25 80
38 14 56 -11 61 -85 6 -89 22 -84 22 7 0 59 -4 77 -18 90 -22 20 -67 22 -79 5
-5 -8 -10 1 -13 26 -3 22 -11 41 -17 44 -10 3 -13 -25 -13 -117z"/>
<path d="M11317 2833 c-4 -3 -7 -21 -7 -40 0 -30 -2 -33 -19 -23 -31 16 -56
12 -80 -14 -52 -55 -25 -156 42 -156 18 0 38 5 45 12 9 9 12 9 12 0 0 -7 7
-12 15 -12 13 0 15 20 15 120 0 110 -5 132 -23 113z m-9 -140 c3 -44 -16 -73
-48 -73 -40 0 -65 77 -37 112 33 43 80 21 85 -39z"/>
<path d="M6600 2800 c0 -11 -7 -20 -15 -20 -8 0 -15 -7 -15 -15 0 -8 7 -15 15
-15 12 0 15 -14 15 -63 0 -69 10 -87 50 -86 l25 0 -22 16 c-20 13 -23 25 -23
74 0 46 3 59 15 59 8 0 15 7 15 15 0 8 -7 15 -15 15 -8 0 -15 9 -15 20 0 11
-7 20 -15 20 -8 0 -15 -9 -15 -20z"/>
<path d="M7250 2800 c0 -11 -7 -20 -15 -20 -8 0 -15 -7 -15 -15 0 -8 7 -15 15
-15 12 0 15 -14 15 -63 0 -65 11 -87 42 -87 24 0 23 12 -2 28 -16 10 -20 23
-20 67 0 48 2 55 20 55 11 0 20 7 20 15 0 8 -9 15 -20 15 -13 0 -20 7 -20 20
0 11 -4 20 -10 20 -5 0 -10 -9 -10 -20z"/>
<path d="M8600 2800 c0 -11 -7 -20 -15 -20 -8 0 -15 -5 -15 -10 0 -6 7 -13 15
-16 11 -5 15 -22 15 -68 0 -68 11 -86 50 -85 l25 0 -22 16 c-20 13 -23 25 -23
74 0 46 3 59 15 59 8 0 15 7 15 15 0 8 -7 15 -15 15 -8 0 -15 9 -15 20 0 11
-7 20 -15 20 -8 0 -15 -9 -15 -20z"/>
<path d="M1508 2760 c-31 -23 -41 -68 -27 -110 13 -36 35 -50 82 -50 39 0 80
33 53 43 -8 3 -20 -1 -26 -9 -17 -20 -54 -18 -73 4 -31 34 -21 42 48 42 63 0
65 1 65 25 0 33 -42 75 -73 75 -13 0 -36 -9 -49 -20z m90 -44 c3 -13 -6 -16
-47 -16 -28 0 -51 4 -51 8 0 13 24 39 40 45 19 6 54 -16 58 -37z"/>
<path d="M1764 2767 c-11 -28 1 -230 14 -235 8 -2 12 10 12 44 0 37 3 45 12
36 23 -23 75 -14 98 16 58 73 -25 196 -92 135 -17 -15 -18 -15 -18 0 0 20 -18
23 -26 4z m124 -62 c6 -46 -6 -74 -34 -81 -68 -17 -91 106 -24 129 24 8 55
-18 58 -48z"/>
<path d="M1981 2764 c-32 -23 -12 -41 22 -19 20 13 30 14 46 5 29 -15 26 -39
-6 -45 -16 -4 -38 -8 -50 -11 -61 -12 -43 -94 20 -94 18 0 38 5 45 12 9 9 12
9 12 0 0 -7 5 -12 10 -12 6 0 10 33 10 80 0 68 -3 81 -19 90 -28 15 -63 12
-90 -6z m89 -93 c0 -42 -73 -72 -86 -36 -9 22 13 43 49 48 18 2 33 5 35 5 1 1
2 -7 2 -17z"/>
<path d="M2165 2755 c-19 -18 -25 -35 -25 -65 0 -30 6 -47 25 -65 28 -29 51
-31 83 -9 21 14 22 14 22 -10 0 -17 -9 -32 -26 -43 -25 -16 -28 -16 -55 -1
-33 20 -54 3 -24 -19 25 -18 75 -17 103 3 20 14 22 23 22 125 0 66 -4 109 -10
109 -5 0 -10 -7 -10 -17 0 -15 -1 -15 -18 0 -26 24 -59 21 -87 -8z m96 -33
c15 -39 2 -81 -27 -88 -13 -3 -31 -4 -39 0 -23 8 -36 52 -25 80 18 49 74 54
91 8z"/>
<path d="M2365 2755 c-33 -32 -35 -105 -5 -135 27 -27 90 -27 114 -1 13 14 14
20 4 23 -7 3 -19 -1 -26 -9 -21 -20 -59 -16 -76 9 -9 12 -16 26 -16 30 0 5 29
8 65 8 63 0 65 1 65 25 0 33 -42 75 -75 75 -14 0 -37 -11 -50 -25z m87 -19
c18 -27 7 -36 -42 -36 -49 0 -57 5 -42 26 20 31 66 36 84 10z"/>
<path d="M2620 2766 c0 -8 13 -49 30 -92 30 -79 29 -114 -5 -114 -8 0 -15 -7
-15 -15 0 -21 27 -19 47 4 13 16 93 211 93 227 0 2 -6 4 -14 4 -9 0 -23 -26
-36 -65 -12 -36 -25 -65 -28 -65 -4 0 -18 29 -30 65 -22 60 -42 85 -42 51z"/>
<path d="M2825 2758 c-35 -31 -42 -83 -16 -125 18 -28 27 -33 59 -33 53 0 82
32 82 89 0 78 -70 116 -125 69z m98 -51 c11 -35 -11 -81 -41 -85 -67 -10 -87
109 -22 131 22 7 53 -16 63 -46z"/>
<path d="M3000 2702 c0 -47 5 -83 12 -90 16 -16 60 -15 77 1 11 10 14 10 18 0
13 -36 23 -3 23 77 0 53 -4 90 -10 90 -6 0 -10 -27 -10 -60 0 -47 -4 -64 -20
-80 -24 -24 -34 -25 -54 -4 -11 11 -16 35 -16 80 0 36 -4 64 -10 64 -6 0 -10
-33 -10 -78z"/>
<path d="M3298 2769 c-10 -5 -18 -17 -18 -24 0 -18 1 -18 36 -1 19 11 33 12
46 5 27 -14 22 -38 -9 -44 -67 -14 -78 -20 -81 -48 -2 -16 2 -35 9 -43 14 -17
70 -19 87 -2 9 9 12 9 12 0 0 -7 7 -12 15 -12 12 0 15 14 15 70 0 57 -4 74
-20 90 -21 21 -64 26 -92 9z m72 -135 c-25 -29 -90 -7 -71 25 5 7 24 16 42 20
28 6 35 4 37 -12 2 -10 -2 -25 -8 -33z"/>
<path d="M3460 2690 c0 -72 3 -90 15 -90 11 0 15 17 17 73 3 70 4 72 31 75 15
2 27 9 27 18 0 17 -31 18 -49 2 -11 -10 -14 -10 -18 0 -13 35 -23 2 -23 -78z"/>
<path d="M3595 2755 c-34 -33 -35 -102 -2 -133 30 -28 87 -29 111 -3 15 16 15
19 1 24 -8 4 -15 2 -15 -3 0 -16 -46 -23 -69 -10 -12 6 -21 20 -21 30 0 18 7
20 60 20 58 0 60 1 60 25 0 33 -42 75 -75 75 -14 0 -37 -11 -50 -25z m93 -34
c3 -19 -1 -21 -42 -21 -51 0 -62 18 -25 44 27 19 63 7 67 -23z"/>
<path d="M3955 2755 c-33 -32 -35 -105 -5 -135 21 -21 69 -26 100 -10 45 24
46 116 2 150 -33 27 -68 25 -97 -5z m93 -23 c29 -38 1 -112 -43 -112 -28 0
-55 34 -55 68 0 31 43 74 67 66 10 -4 24 -14 31 -22z"/>
<path d="M4162 2773 c-7 -3 -19 -18 -27 -33 -36 -69 -3 -140 65 -140 67 0 101
71 65 139 -19 38 -60 51 -103 34z m86 -80 c3 -44 -16 -73 -48 -73 -54 0 -70
102 -20 127 37 18 64 -3 68 -54z"/>
<path d="M4500 2691 c0 -75 3 -91 15 -91 13 0 15 14 13 87 -2 58 -7 88 -15 91
-10 3 -13 -19 -13 -87z"/>
<path d="M4580 2690 c0 -53 4 -90 10 -90 6 0 10 25 10 56 0 82 27 117 71 94
16 -9 19 -22 19 -80 0 -56 3 -70 15 -70 12 0 15 13 15 59 0 33 -4 71 -10 85
-11 31 -54 44 -84 26 -14 -9 -21 -10 -24 -1 -2 6 -8 11 -13 11 -5 0 -9 -40 -9
-90z"/>
<path d="M4785 2755 c-19 -18 -25 -35 -25 -65 0 -30 6 -47 25 -65 28 -29 51
-31 83 -9 21 14 22 14 22 -10 0 -49 -45 -70 -87 -41 -28 19 -43 0 -17 -20 27
-20 78 -18 105 4 22 18 24 26 24 122 0 73 -4 103 -12 106 -7 3 -13 -3 -13 -13
0 -16 -1 -16 -18 -1 -26 24 -59 21 -87 -8z m99 -39 c15 -40 -3 -80 -37 -84
-39 -5 -57 14 -57 59 0 68 72 88 94 25z"/>
<path d="M5185 2755 c-32 -31 -34 -91 -4 -129 45 -57 139 -19 139 56 0 86 -80
129 -135 73z m83 -11 c42 -29 20 -124 -29 -124 -49 0 -70 94 -27 124 12 9 25
16 28 16 3 0 16 -7 28 -16z"/>
<path d="M5360 2690 c0 -73 3 -90 15 -90 12 0 15 14 15 63 0 65 11 87 42 87
10 0 18 7 18 15 0 18 -31 20 -48 3 -9 -9 -12 -9 -12 0 0 7 -7 12 -15 12 -12 0
-15 -17 -15 -90z"/>
<path d="M5795 2755 c-32 -31 -34 -91 -4 -129 45 -57 139 -19 139 56 0 84 -81
128 -135 73z m83 -11 c42 -29 20 -124 -29 -124 -49 0 -70 94 -27 124 12 9 25
16 28 16 3 0 16 -7 28 -16z"/>
<path d="M5993 2758 c-29 -33 -36 -63 -23 -103 13 -39 35 -55 77 -55 38 0 72
24 57 40 -8 8 -14 7 -24 -5 -17 -20 -53 -19 -73 3 -31 34 -21 42 49 42 l67 0
-7 33 c-12 63 -83 89 -123 45z m95 -42 c3 -13 -6 -16 -47 -16 -28 0 -51 4 -51
8 0 13 24 39 40 45 19 6 54 -16 58 -37z"/>
<path d="M6175 2760 c-28 -31 -13 -66 37 -82 51 -16 63 -44 23 -54 -18 -4 -32
-1 -45 11 -23 21 -39 12 -24 -13 15 -24 81 -28 105 -6 38 34 14 72 -53 88 -18
4 -28 13 -28 25 0 26 28 34 56 16 29 -19 34 -19 34 0 0 35 -76 47 -105 15z"/>
<path d="M6330 2690 c0 -73 3 -90 15 -90 12 0 15 14 15 63 0 66 5 80 32 90 33
12 52 -17 56 -87 6 -89 22 -84 22 7 0 59 -4 77 -18 90 -22 20 -63 22 -80 5 -9
-9 -12 -9 -12 0 0 7 -7 12 -15 12 -12 0 -15 -17 -15 -90z"/>
<path d="M6815 2755 c-32 -31 -34 -91 -4 -129 25 -32 86 -37 112 -8 24 26 11
33 -23 14 -23 -13 -33 -14 -54 -4 -16 7 -26 20 -26 32 0 18 6 20 60 20 59 0
60 0 60 28 0 36 -37 72 -74 72 -15 0 -37 -10 -51 -25z m95 -25 c13 -24 4 -30
-47 -30 -48 0 -58 18 -22 43 24 17 56 11 69 -13z"/>
<path d="M6976 2768 c4 -7 16 -25 26 -40 24 -34 23 -46 -7 -91 -32 -47 -11
-51 27 -5 l26 33 19 -33 c10 -17 24 -32 31 -32 18 0 15 11 -13 53 l-25 37 26
40 c15 22 24 44 20 48 -7 7 -29 -16 -52 -54 -9 -16 -13 -14 -33 19 -12 20 -29
37 -37 37 -9 0 -12 -5 -8 -12z"/>
<path d="M7160 2690 c0 -53 4 -90 10 -90 6 0 10 37 10 90 0 53 -4 90 -10 90
-6 0 -10 -37 -10 -90z"/>
<path d="M7366 2761 c-30 -33 -17 -63 34 -82 24 -9 46 -22 48 -29 10 -29 -61
-42 -76 -14 -5 10 -14 14 -21 9 -9 -5 -8 -12 5 -26 36 -39 124 -15 124 34 0
19 -32 42 -72 51 -18 4 -28 13 -28 25 0 26 28 34 56 16 29 -19 34 -19 34 0 0
35 -76 47 -104 16z"/>
<path d="M7633 2756 c-33 -29 -38 -87 -10 -129 14 -22 25 -27 57 -27 53 0 80
29 80 87 0 81 -69 119 -127 69z m100 -47 c22 -61 -47 -117 -85 -69 -44 55 2
140 57 105 11 -7 24 -23 28 -36z"/>
<path d="M7810 2690 c0 -53 4 -90 10 -90 6 0 10 25 10 56 0 64 13 94 40 94 11
0 20 7 20 15 0 18 -14 19 -41 5 -13 -7 -19 -7 -19 0 0 5 -4 10 -10 10 -6 0
-10 -37 -10 -90z"/>
<path d="M8039 2761 c-32 -25 -20 -35 18 -16 35 18 63 11 63 -15 0 -19 -19
-30 -54 -30 -36 0 -62 -35 -50 -68 8 -22 16 -28 47 -30 21 -2 45 2 53 9 10 8
14 8 14 0 0 -6 5 -11 10 -11 6 0 10 31 10 73 0 59 -4 77 -18 90 -25 22 -64 21
-93 -2z m91 -89 c0 -4 -7 -18 -16 -30 -11 -16 -24 -22 -42 -20 -30 3 -43 35
-20 49 16 11 78 12 78 1z"/>
<path d="M8200 2690 c0 -72 3 -90 15 -90 11 0 15 16 17 66 3 55 7 69 25 81 19
13 24 12 42 -6 17 -17 21 -34 21 -81 0 -33 4 -60 10 -60 6 0 10 31 10 73 0 59
-4 77 -18 90 -21 19 -45 21 -73 7 -13 -7 -19 -7 -19 0 0 5 -7 10 -15 10 -12 0
-15 -17 -15 -90z"/>
<path d="M8416 2759 c-22 -17 -26 -28 -26 -70 0 -59 24 -89 71 -89 44 0 67 16
77 54 13 46 4 83 -26 106 -32 26 -63 25 -96 -1z m99 -53 c13 -37 -11 -80 -47
-84 -37 -4 -63 35 -54 83 12 64 78 64 101 1z"/>
<path d="M8927 2760 c-31 -25 -41 -62 -27 -106 13 -39 35 -54 78 -54 37 0 84
33 59 43 -8 3 -21 -1 -27 -9 -17 -20 -54 -18 -73 4 -31 34 -21 42 48 42 63 0
65 1 65 25 0 33 -42 75 -73 75 -13 0 -36 -9 -50 -20z m91 -44 c3 -13 -6 -16
-47 -16 -28 0 -51 4 -51 8 0 13 24 39 40 45 19 6 54 -16 58 -37z"/>
<path d="M9090 2690 c0 -73 3 -90 15 -90 12 0 15 14 15 63 0 65 11 87 42 87
10 0 18 7 18 15 0 18 -31 20 -48 3 -9 -9 -12 -9 -12 0 0 7 -7 12 -15 12 -12 0
-15 -17 -15 -90z"/>
<path d="M9325 2755 c-33 -32 -35 -105 -5 -135 27 -27 90 -27 114 -1 22 25 -1
36 -27 13 -23 -20 -66 -6 -78 26 -8 21 -7 22 56 22 63 0 65 1 65 25 0 33 -42
75 -75 75 -14 0 -37 -11 -50 -25z m93 -34 c3 -19 -1 -21 -46 -21 -44 0 -50 2
-45 19 11 43 85 45 91 2z"/>
<path d="M9497 2773 c-4 -3 -7 -44 -7 -90 0 -67 3 -83 15 -83 12 0 15 14 15
63 0 65 11 87 42 87 10 0 18 7 18 15 0 18 -31 20 -48 3 -9 -9 -12 -9 -12 0 0
13 -13 16 -23 5z"/>
<path d="M9620 2690 c0 -53 4 -90 10 -90 6 0 10 28 10 63 0 65 11 87 42 87 10
0 18 7 18 15 0 18 -14 19 -41 5 -13 -7 -19 -7 -19 0 0 5 -4 10 -10 10 -6 0
-10 -37 -10 -90z"/>
<path d="M9752 2760 c-32 -30 -38 -82 -15 -122 15 -27 26 -34 57 -36 55 -5 86
26 86 85 0 78 -76 122 -128 73z m101 -51 c21 -58 -41 -112 -83 -74 -35 31 -22
104 20 118 21 7 53 -16 63 -44z"/>
<path d="M9930 2690 c0 -53 4 -90 10 -90 6 0 10 28 10 63 0 65 11 87 42 87 10
0 18 7 18 15 0 18 -14 19 -41 5 -13 -7 -19 -7 -19 0 0 5 -4 10 -10 10 -6 0
-10 -37 -10 -90z"/>
<path d="M10172 2773 c-19 -7 -42 -58 -42 -91 0 -76 94 -113 140 -54 29 35 23
107 -10 134 -21 17 -61 22 -88 11z m86 -80 c3 -44 -16 -73 -48 -73 -54 0 -70
102 -20 127 37 18 64 -3 68 -54z"/>
<path d="M10356 2758 c-24 -22 -30 -43 -27 -95 3 -55 88 -85 124 -45 21 23 21
32 3 32 -8 0 -16 -7 -20 -15 -9 -24 -54 -18 -72 10 -22 34 -11 93 19 104 27
10 54 3 61 -15 7 -18 26 -18 26 0 0 20 -39 46 -67 46 -12 0 -33 -10 -47 -22z"/>
<path d="M10535 2755 c-34 -33 -35 -102 -2 -133 31 -29 80 -29 109 0 27 27 6
39 -22 13 -26 -23 -68 -12 -80 21 -15 38 -12 53 14 79 25 25 60 25 70 -1 7
-18 26 -18 26 0 0 20 -39 46 -68 46 -12 0 -34 -11 -47 -25z"/>
<path d="M10700 2709 c0 -39 5 -79 10 -90 13 -23 62 -26 84 -3 15 14 16 14 16
0 0 -9 7 -16 15 -16 13 0 15 14 13 87 -2 58 -7 88 -15 91 -10 3 -13 -14 -13
-62 0 -56 -3 -67 -22 -80 -28 -20 -33 -20 -52 0 -11 11 -16 35 -16 80 0 36 -4
64 -10 64 -6 0 -10 -30 -10 -71z"/>
<path d="M10890 2690 c0 -53 4 -90 10 -90 6 0 10 25 10 56 0 64 13 94 40 94
11 0 20 7 20 15 0 18 -14 19 -41 5 -13 -7 -19 -7 -19 0 0 5 -4 10 -10 10 -6 0
-10 -37 -10 -90z"/>
<path d="M11027 2760 c-31 -25 -41 -62 -27 -106 13 -38 35 -54 77 -54 38 0 72
24 57 40 -8 8 -14 7 -24 -5 -17 -20 -53 -19 -73 3 -31 34 -21 42 48 42 63 0
65 1 65 25 0 33 -42 75 -73 75 -13 0 -36 -9 -50 -20z m91 -44 c3 -13 -6 -16
-47 -16 -28 0 -51 4 -51 8 0 13 24 39 40 45 19 6 54 -16 58 -37z"/>
<path d="M11395 2631 c-8 -15 3 -31 21 -31 9 0 14 7 12 17 -4 20 -24 28 -33
14z"/>
</g>
</svg>
