<svg width="610" height="455" viewBox="0 0 610 455" fill="none" xmlns="http://www.w3.org/2000/svg">
<path d="M0 0H610V455H0V0Z" fill="white"/>
<ellipse cx="305.4" cy="298.08" rx="22.4" ry="1.28" fill="#E3EEF7"/>
<path fill-rule="evenodd" clip-rule="evenodd" d="M253 188H357C360.866 188 364 191.134 364 195V255.293L329.5 220.793L301.5 248.793L273.5 220.793L246 248.293V195C246 191.134 249.134 188 253 188ZM302.207 249.5L338.707 286H357C360.866 286 364 282.866 364 279V256.707L329.5 222.207L302.207 249.5ZM273.5 222.207L337.293 286H253C249.134 286 246 282.866 246 279V249.707L273.5 222.207ZM245 195C245 190.582 248.582 187 253 187H357C361.418 187 365 190.582 365 195V279C365 283.418 361.418 287 357 287H253C248.582 287 245 283.418 245 279V195ZM312 217C312 221.971 307.971 226 303 226C298.029 226 294 221.971 294 217C294 212.029 298.029 208 303 208C307.971 208 312 212.029 312 217ZM313 217C313 222.523 308.523 227 303 227C297.477 227 293 222.523 293 217C293 211.477 297.477 207 303 207C308.523 207 313 211.477 313 217Z" fill="#707580"/>
</svg>
