<svg width="20" height="20" viewBox="0 0 20 20" fill="none" xmlns="http://www.w3.org/2000/svg">
<ellipse cx="10" cy="18.5" rx="8" ry="0.5" fill="#EDEFF2"/>
<path fill-rule="evenodd" clip-rule="evenodd" d="M1.5 1.6C1.5 1.54477 1.54477 1.5 1.6 1.5L18.4 1.5C18.4552 1.5 18.5 1.54477 18.5 1.6V10.7935L14.5728 6.86911C14.2554 6.55196 13.7419 6.54943 13.4214 6.86343L9.6916 10.5177L5.51213 6.81743C5.19641 6.53791 4.72001 6.54398 4.41152 6.83146L1.5 9.54467V1.6ZM10.4422 11.1823L14.1896 14.5H18.4C18.4552 14.5 18.5 14.4552 18.5 14.4V12.2072L13.993 7.7034L10.4422 11.1823ZM4.97267 7.67543L12.681 14.5H1.6C1.54477 14.5 1.5 14.4552 1.5 14.4V10.9116L4.97267 7.67543ZM1.6 0.5C0.992487 0.5 0.5 0.992487 0.5 1.6V14.4C0.5 15.0075 0.992488 15.5 1.6 15.5H18.4C19.0075 15.5 19.5 15.0075 19.5 14.4V1.6C19.5 0.992487 19.0075 0.5 18.4 0.5H1.6ZM10 5.5C10 5.77614 9.77614 6 9.5 6C9.22386 6 9 5.77614 9 5.5C9 5.22386 9.22386 5 9.5 5C9.77614 5 10 5.22386 10 5.5ZM9.5 7C10.3284 7 11 6.32843 11 5.5C11 4.67157 10.3284 4 9.5 4C8.67157 4 8 4.67157 8 5.5C8 6.32843 8.67157 7 9.5 7Z" fill="#707580"/>
</svg>
