<svg width="100" height="100" viewBox="0 0 100 100" fill="none" xmlns="http://www.w3.org/2000/svg">
<rect width="100" height="100" fill="white"/>
<path fill-rule="evenodd" clip-rule="evenodd" d="M17.375 10C17.375 7.99797 18.998 6.375 21 6.375H79C81.002 6.375 82.625 7.99797 82.625 10V85.1174C82.625 85.9916 81.6715 86.5318 80.9216 86.0823L71.0346 80.1564L62.6371 86.308C62.272 86.5755 61.7822 86.5981 61.394 86.3654L51 80.1356L40.5875 86.3766C40.2207 86.5964 39.761 86.5893 39.4012 86.3582L29 79.6788L19.1079 86.0313C18.3592 86.5121 17.375 85.9745 17.375 85.0847V10ZM21 7.625C19.6883 7.625 18.625 8.68832 18.625 10V84.8559L28.3921 78.5836C28.7625 78.3458 29.2375 78.3458 29.6079 78.5836L40.0114 85.2645L50.4216 79.025C50.7777 78.8116 51.2223 78.8116 51.5784 79.025L61.9654 85.2506L70.3629 79.099C70.728 78.8315 71.2178 78.8089 71.606 79.0415L81.375 84.8967V10C81.375 8.68832 80.3117 7.625 79 7.625H21Z" fill="#707580"/>
<path fill-rule="evenodd" clip-rule="evenodd" d="M44.2857 19.625H26V18.375H44.2857V19.625ZM74 37.125H26V35.875H74V37.125ZM74 43.625H26V42.375H74V43.625ZM62 49.625H26V48.375H62V49.625Z" fill="#707580"/>
<path d="M70.1219 73.1818H70.879V72.1524C72.8179 72.0185 73.9074 70.8736 73.9074 69.4333C73.9074 67.6605 72.227 67.0881 71.2483 66.8296L70.879 66.728V63.4457C71.8577 63.5426 72.5686 64.0689 72.6702 64.9091H73.7782C73.732 63.5611 72.5502 62.5362 70.879 62.4254V61.3636H70.1219V62.4393C68.5385 62.6009 67.352 63.6073 67.352 65.0568C67.352 66.331 68.2753 67.0881 69.7526 67.5128L70.1219 67.619V71.1136C69.1525 71.0121 68.3584 70.5135 68.2753 69.5625H67.0935C67.1997 71.0167 68.3076 72.0323 70.1219 72.1524V73.1818ZM70.879 71.1136V67.8359L70.9159 67.8452C71.9131 68.1222 72.7995 68.473 72.7995 69.4148C72.7995 70.3427 71.9962 70.989 70.879 71.1136ZM70.1219 66.5249C69.4202 66.3264 68.46 65.9386 68.46 65.0014C68.46 64.2028 69.1063 63.5934 70.1219 63.4595V66.5249Z" fill="#707580"/>
<path d="M90 98C90 99.1046 72.0914 100 50 100C27.9086 100 10 99.1046 10 98C10 96.8954 27.9086 96 50 96C72.0914 96 90 96.8954 90 98Z" fill="#EDEFF2"/>
</svg>
