<svg width="100" height="100" viewBox="0 0 100 100" fill="none" xmlns="http://www.w3.org/2000/svg">
<rect width="100" height="100" fill="white"/>
<path fill-rule="evenodd" clip-rule="evenodd" d="M13.625 11L13.625 83C13.625 84.3117 14.6883 85.375 16 85.375L70 85.375C71.3117 85.375 72.375 84.3117 72.375 83L72.375 23.7524L59 23.7524C58.1025 23.7524 57.375 23.0249 57.375 22.1274L57.375 8.625L16 8.625C14.6883 8.625 13.625 9.68832 13.625 11ZM58.625 9.51795L58.625 22.1274C58.625 22.3345 58.7929 22.5024 59 22.5024L71.5001 22.5024L58.625 9.51795ZM12.375 83L12.375 11C12.375 8.99797 13.998 7.375 16 7.375L58.2604 7.375L73.625 22.8701L73.625 83C73.625 85.002 72.002 86.625 70 86.625L16 86.625C13.998 86.625 12.375 85.002 12.375 83Z" fill="#707580"/>
<path fill-rule="evenodd" clip-rule="evenodd" d="M39.8543 31.125H22V29.875H39.8543V31.125ZM62 38.625H22V37.375H62V38.625ZM58.8543 46.625H22V45.375H58.8543V46.625Z" fill="#707580"/>
<path d="M88 61C88 69.2843 81.2843 76 73 76C64.7157 76 58 69.2843 58 61C58 52.7157 64.7157 46 73 46C81.2843 46 88 52.7157 88 61Z" fill="white"/>
<path fill-rule="evenodd" clip-rule="evenodd" d="M73 74.75C80.5939 74.75 86.75 68.5939 86.75 61C86.75 53.4061 80.5939 47.25 73 47.25C65.4061 47.25 59.25 53.4061 59.25 61C59.25 68.5939 65.4061 74.75 73 74.75ZM73 76C81.2843 76 88 69.2843 88 61C88 52.7157 81.2843 46 73 46C64.7157 46 58 52.7157 58 61C58 69.2843 64.7157 76 73 76Z" fill="#707580"/>
<path fill-rule="evenodd" clip-rule="evenodd" d="M73 52.1161L80.442 59.558L79.5581 60.4419L73.625 54.5089V70.5H72.375V54.5089L66.442 60.4419L65.5581 59.558L73 52.1161Z" fill="#707580"/>
<path d="M90 98C90 99.1046 72.0914 100 50 100C27.9086 100 10 99.1046 10 98C10 96.8954 27.9086 96 50 96C72.0914 96 90 96.8954 90 98Z" fill="#EDEFF2"/>
</svg>
