<svg width="100" height="100" viewBox="0 0 100 100" fill="none" xmlns="http://www.w3.org/2000/svg">
<rect width="100" height="100" fill="white"/>
<path fill-rule="evenodd" clip-rule="evenodd" d="M86 43.625C87.3117 43.625 88.375 44.6883 88.375 46V82C88.375 83.3117 87.3117 84.375 86 84.375H14C12.6883 84.375 11.625 83.3117 11.625 82V46C11.625 44.6883 12.6883 43.625 14 43.625H86ZM89.625 46C89.625 43.998 88.002 42.375 86 42.375H14C11.998 42.375 10.375 43.998 10.375 46V82C10.375 84.002 11.998 85.625 14 85.625H86C88.002 85.625 89.625 84.002 89.625 82V46Z" fill="#707580"/>
<path fill-rule="evenodd" clip-rule="evenodd" d="M50 17.9793C52.75 17.9793 54.9793 15.75 54.9793 13C54.9793 10.25 52.75 8.02074 50 8.02074C47.25 8.02074 45.0207 10.25 45.0207 13C45.0207 15.75 47.25 17.9793 50 17.9793ZM50 19C53.3137 19 56 16.3137 56 13C56 9.68629 53.3137 7 50 7C46.6863 7 44 9.68629 44 13C44 16.3137 46.6863 19 50 19Z" fill="#707580"/>
<path fill-rule="evenodd" clip-rule="evenodd" d="M54.8166 16.5785C54.5655 16.9159 54.2797 17.226 53.9647 17.5036L75.6268 42.375H24.3732L46.0353 17.5036C45.7203 17.2261 45.4346 16.9159 45.1835 16.5785L22.5287 42.5895C22.3678 42.7742 22.3297 43.0359 22.4312 43.2589C22.5326 43.4819 22.755 43.625 23 43.625H77C77.245 43.625 77.4674 43.4819 77.5689 43.2589C77.6703 43.0359 77.6322 42.7742 77.4713 42.5895L54.8166 16.5785Z" fill="#707580"/>
<path fill-rule="evenodd" clip-rule="evenodd" d="M30.1284 57.2499C30.1284 56.9047 30.4082 56.6249 30.7534 56.6249H76.4853C76.8305 56.6249 77.1103 56.9047 77.1103 57.2499C77.1103 57.5951 76.8305 57.8749 76.4853 57.8749H30.7534C30.4082 57.8749 30.1284 57.5951 30.1284 57.2499ZM30.1284 66.9384C30.1284 66.5932 30.4082 66.3134 30.7534 66.3134H59.4688C59.814 66.3134 60.0938 66.5932 60.0938 66.9384C60.0938 67.2836 59.814 67.5634 59.4688 67.5634H30.7534C30.4082 67.5634 30.1284 67.2836 30.1284 66.9384Z" fill="#707580"/>
<path fill-rule="evenodd" clip-rule="evenodd" d="M25.9391 58.8646C26.8253 58.8646 27.5437 58.1417 27.5437 57.2499C27.5437 56.3581 26.8253 55.6351 25.9391 55.6351C25.0529 55.6351 24.3345 56.3581 24.3345 57.2499C24.3345 58.1417 25.0529 58.8646 25.9391 58.8646ZM25.9391 68.5532C26.8253 68.5532 27.5437 67.8303 27.5437 66.9385C27.5437 66.0467 26.8253 65.3237 25.9391 65.3237C25.0529 65.3237 24.3345 66.0467 24.3345 66.9385C24.3345 67.8303 25.0529 68.5532 25.9391 68.5532Z" fill="#707580"/>
<path d="M90 98C90 99.1046 72.0914 100 50 100C27.9086 100 10 99.1046 10 98C10 96.8954 27.9086 96 50 96C72.0914 96 90 96.8954 90 98Z" fill="#EDEFF2"/>
</svg>
