<svg width="20" height="20" viewBox="0 0 20 20" fill="none" xmlns="http://www.w3.org/2000/svg">
<circle cx="10" cy="10" r="7.5" stroke="#A17112" stroke-width="1.66667"/>
<path d="M10.2904 9.44216C10.3847 9.21292 10.6465 9.12811 10.8546 9.25941L12.1138 10.0539C12.3219 10.1852 12.3856 10.4755 12.251 10.6793L9.30778 15.1377C9.19049 15.3154 8.96266 15.3636 8.78126 15.2491L8.40321 15.0106C8.2218 14.8962 8.1461 14.6564 8.22829 14.4565L10.2904 9.44216Z" fill="#A17112"/>
<path d="M8.72391 10.3024C8.61146 10.5247 8.34308 10.5875 8.14691 10.4374L6.86684 9.45779C6.67066 9.30766 6.63285 9.01057 6.78556 8.81908L10.0887 4.67693C10.2208 4.51138 10.45 4.4842 10.6196 4.61398L11.0291 4.9273C11.1987 5.0571 11.2537 5.30186 11.1565 5.49405L8.72391 10.3024Z" fill="#A17112"/>
<path d="M12.4183 8.42583C12.7028 8.3993 12.9333 8.663 12.8695 8.94189L12.5665 10.2666C12.5268 10.4403 12.3806 10.5673 12.2032 10.5822L6.62687 11.051C6.32999 11.0759 6.09885 10.7877 6.18778 10.5034L6.589 9.22079C6.63821 9.06348 6.776 8.95199 6.94011 8.93668L12.4183 8.42583Z" fill="#A17112"/>
</svg>
