<svg width="30" height="30" viewBox="0 0 30 30" fill="none" xmlns="http://www.w3.org/2000/svg">
<rect width="30" height="30" rx="15" fill="#F2F3F5"/>
<path fill-rule="evenodd" clip-rule="evenodd" d="M9.68029 17.3801L9.35702 19.643L11.8641 19.2848L12.3674 19.4913C13.1559 19.8147 14.0475 20 15 20C18.5729 20 21 17.5189 21 15C21 12.4811 18.5729 10 15 10C11.4271 10 9 12.4811 9 15C9 15.6452 9.1468 16.2625 9.41977 16.8344L9.68029 17.3801ZM7.61486 17.696C7.21877 16.8662 7 15.9554 7 15C7 11.134 10.5817 8 15 8C19.4183 8 23 11.134 23 15C23 18.866 19.4183 22 15 22C13.7876 22 12.6382 21.764 11.6084 21.3417L7.65997 21.9057C7.32998 21.9529 7.04714 21.67 7.09428 21.34L7.61486 17.696Z" fill="#40444D"/>
</svg>
