<svg width="20" height="20" viewBox="0 0 20 20" fill="none" xmlns="http://www.w3.org/2000/svg">
<mask id="path-1-inside-1" fill="white">
<path fill-rule="evenodd" clip-rule="evenodd" d="M10 17C14.4183 17 18 13.866 18 10C18 6.13401 14.4183 3 10 3C5.58172 3 2 6.13401 2 10C2 10.9554 2.21877 11.8662 2.61486 12.696L2.09428 16.34C2.04714 16.67 2.32998 16.9529 2.65997 16.9057L6.60844 16.3417C7.63815 16.764 8.78758 17 10 17Z"/>
</mask>
<path d="M2.61486 12.696L4.59476 12.9788L4.68029 12.3801L4.41977 11.8344L2.61486 12.696ZM2.09428 16.34L0.114382 16.0572H0.114382L2.09428 16.34ZM2.65997 16.9057L2.37712 14.9258L2.37712 14.9258L2.65997 16.9057ZM6.60844 16.3417L7.36741 14.4913L6.86412 14.2848L6.3256 14.3618L6.60844 16.3417ZM16 10C16 12.5189 13.5729 15 10 15V19C15.2636 19 20 15.2131 20 10H16ZM10 5C13.5729 5 16 7.48108 16 10H20C20 4.78693 15.2636 1 10 1V5ZM4 10C4 7.48108 6.42708 5 10 5V1C4.73636 1 0 4.78693 0 10H4ZM4.41977 11.8344C4.1468 11.2625 4 10.6452 4 10H0C0 11.2657 0.290732 12.4698 0.80996 13.5575L4.41977 11.8344ZM4.07418 16.6229L4.59476 12.9788L0.634965 12.4131L0.114382 16.0572L4.07418 16.6229ZM2.37712 14.9258C3.36707 14.7844 4.2156 15.6329 4.07418 16.6229L0.114382 16.0572C-0.12132 17.7071 1.29289 19.1213 2.94281 18.8856L2.37712 14.9258ZM6.3256 14.3618L2.37712 14.9258L2.94281 18.8856L6.89128 18.3216L6.3256 14.3618ZM10 15C9.04746 15 8.15588 14.8147 7.36741 14.4913L5.84947 18.192C7.12042 18.7134 8.5277 19 10 19V15Z" fill="#40444D" mask="url(#path-1-inside-1)"/>
</svg>
