<svg width="32" height="32" viewBox="0 0 32 32" fill="none" xmlns="http://www.w3.org/2000/svg">
<rect width="32" height="32" rx="16" fill="#F2F3F5"/>
<path fill-rule="evenodd" clip-rule="evenodd" d="M19 14.4142L11.4142 22L10 22L10 20.5858L17.5857 13L19 14.4142ZM20.4142 13L21.9141 11.5L20.4999 10.0858L18.9999 11.5858L20.4142 13ZM11.4142 24L8.00003 24L8 20.5858C8 20.0554 8.21071 19.5467 8.58578 19.1716L19.0857 8.67155C19.8668 7.89049 21.1331 7.89049 21.9141 8.67154L23.3284 10.0858C24.1094 10.8668 24.1094 12.1331 23.3284 12.9142L12.8284 23.4142C12.4534 23.7893 11.9446 24 11.4142 24Z" fill="#40444D"/>
</svg>
