<svg width="20" height="20" viewBox="0 0 20 20" fill="none" xmlns="http://www.w3.org/2000/svg">
<mask id="path-1-inside-1" fill="white">
<path fill-rule="evenodd" clip-rule="evenodd" d="M4 2.00024C2.89543 2.00024 2 2.89567 2 4.00024V13.0002C2 14.1048 2.89543 15.0002 4 15.0002H6V18L10.9996 15.0002H16C17.1046 15.0002 18 14.1048 18 13.0002V4.00024C18 2.89567 17.1046 2.00024 16 2.00024H4Z"/>
</mask>
<path d="M6 15.0002H7.92V13.0802H6V15.0002ZM6 18H4.08V21.3911L6.98783 19.6464L6 18ZM10.9996 15.0002V13.0802H10.4678L10.0118 13.3539L10.9996 15.0002ZM3.92 4.00024C3.92 3.95606 3.95582 3.92024 4 3.92024V0.0802439C1.83504 0.0802439 0.0799998 1.83529 0.0799998 4.00024H3.92ZM3.92 13.0002V4.00024H0.0799998V13.0002H3.92ZM4 13.0802C3.95582 13.0802 3.92 13.0444 3.92 13.0002H0.0799998C0.0799998 15.1652 1.83504 16.9202 4 16.9202V13.0802ZM6 13.0802H4V16.9202H6V13.0802ZM7.92 18V15.0002H4.08V18H7.92ZM10.0118 13.3539L5.01217 16.3536L6.98783 19.6464L11.9874 16.6466L10.0118 13.3539ZM16 13.0802H10.9996V16.9202H16V13.0802ZM16.08 13.0002C16.08 13.0444 16.0442 13.0802 16 13.0802V16.9202C18.165 16.9202 19.92 15.1652 19.92 13.0002H16.08ZM16.08 4.00024V13.0002H19.92V4.00024H16.08ZM16 3.92024C16.0442 3.92024 16.08 3.95606 16.08 4.00024H19.92C19.92 1.83529 18.165 0.0802439 16 0.0802439V3.92024ZM4 3.92024H16V0.0802439H4V3.92024Z" fill="#40444D" mask="url(#path-1-inside-1)"/>
<circle cx="10" cy="11" r="1" fill="#40444D"/>
<path d="M10 5L10 9" stroke="#40444D" stroke-width="2"/>
</svg>
