<svg width="20" height="20" viewBox="0 0 20 20" fill="none" xmlns="http://www.w3.org/2000/svg">
<path d="M11.0924 12.1908C10.7575 12.6249 10.3935 13.0967 9.99815 13.6171C9.63225 13.1378 9.29299 12.6992 8.97883 12.293C8.12853 11.1937 7.462 10.332 6.94823 9.54337C6.16829 8.3462 5.83333 7.44761 5.83333 6.33341C5.83333 4.26954 7.64373 2.50008 10 2.50008C12.3563 2.50008 14.1667 4.26954 14.1667 6.33341C14.1667 7.44855 13.8323 8.33994 13.0524 9.53343C12.5519 10.2993 11.9087 11.1329 11.0924 12.1908Z" stroke="#40444D" stroke-width="1.66667"/>
<path d="M6.93065 13.739C6.66712 13.8168 6.42373 13.9038 6.20352 13.9982C5.73746 14.1979 5.41354 14.4143 5.21824 14.6122C5.02648 14.8065 5.00004 14.9366 5.00004 15C5.00004 15.0633 5.02648 15.1934 5.21824 15.3877C5.41354 15.5856 5.73746 15.802 6.20352 16.0018C7.13267 16.4 8.47436 16.6666 10 16.6666C11.5257 16.6666 12.8674 16.4 13.7966 16.0018C14.2626 15.802 14.5865 15.5856 14.7818 15.3877C14.9736 15.1934 15 15.0633 15 15C15 14.9366 14.9736 14.8065 14.7818 14.6122C14.5865 14.4143 14.2626 14.1979 13.7966 13.9982C13.5712 13.9016 13.3216 13.8128 13.0511 13.7336L14.1128 12.3303C14.2295 12.3737 14.343 12.4191 14.4531 12.4662C15.0427 12.7189 15.573 13.0412 15.9681 13.4415C16.3667 13.8454 16.6667 14.373 16.6667 15C16.6667 15.627 16.3667 16.1546 15.9681 16.5584C15.573 16.9587 15.0427 17.281 14.4531 17.5337C13.271 18.0403 11.696 18.3333 10 18.3333C8.30406 18.3333 6.72909 18.0403 5.54698 17.5337C4.95742 17.281 4.42706 16.9587 4.032 16.5584C3.6334 16.1546 3.33337 15.627 3.33337 15C3.33337 14.373 3.6334 13.8454 4.032 13.4415C4.42706 13.0412 4.95742 12.7189 5.54698 12.4662C5.64788 12.423 5.75164 12.3813 5.85809 12.3412L6.93065 13.739Z" fill="#40444D"/>
<circle cx="10" cy="6.66667" r="1.66667" fill="#40444D"/>
</svg>
