<svg width="90" height="107" viewBox="0 0 90 107" fill="none" xmlns="http://www.w3.org/2000/svg">
<g clip-path="url(#clip0)">
<path fill-rule="evenodd" clip-rule="evenodd" d="M72.0003 2.16661C74.1174 2.16661 75.8337 3.88285 75.8337 5.99994V74.1666H88.0003C88.5986 74.1666 89.0837 74.6516 89.0837 75.2499V78.9999C89.0837 85.5353 83.7857 90.8333 77.2503 90.8333H13.5003C5.86039 90.8333 -0.333008 84.6399 -0.333008 76.9999V5.99994C-0.333008 3.88285 1.38324 2.16661 3.50033 2.16661H72.0003ZM26.7462 74.1666H74.167V5.99994C74.167 4.80333 73.1969 3.83328 72.0003 3.83328H3.50033C2.30371 3.83328 1.33366 4.80333 1.33366 5.99994V76.9999C1.33366 83.7194 6.78086 89.1666 13.5003 89.1666C20.2198 89.1666 25.667 83.7194 25.667 76.9999V75.2458C25.667 74.6498 26.1502 74.1666 26.7462 74.1666ZM27.3337 76.9999C27.3337 82.2546 24.4039 86.825 20.0887 89.1666H77.2503C82.8652 89.1666 87.417 84.6148 87.417 78.9999V75.8333H27.3337V76.9999ZM15.7502 24.3333C17.0388 24.3333 18.0835 23.2887 18.0835 22C18.0835 20.7113 17.0388 19.6667 15.7502 19.6667C14.4615 19.6667 13.4168 20.7113 13.4168 22C13.4168 23.2887 14.4615 24.3333 15.7502 24.3333ZM15.7502 26C17.9593 26 19.7502 24.2091 19.7502 22C19.7502 19.7909 17.9593 18 15.7502 18C13.541 18 11.7502 19.7909 11.7502 22C11.7502 24.2091 13.541 26 15.7502 26ZM24.5835 18.8333C24.1233 18.8333 23.7502 19.2064 23.7502 19.6667C23.7502 20.1269 24.1233 20.5 24.5835 20.5L61.9168 20.5C62.3771 20.5 62.7502 20.1269 62.7502 19.6667C62.7502 19.2064 62.3771 18.8333 61.9168 18.8333L24.5835 18.8333ZM24.5835 23.3334C24.1233 23.3334 23.7502 23.7065 23.7502 24.1667C23.7502 24.6269 24.1233 25 24.5835 25L52.9168 25C53.3771 25 53.7502 24.6269 53.7502 24.1667C53.7502 23.7065 53.3771 23.3334 52.9168 23.3334L24.5835 23.3334ZM24.2505 37.1667C23.7903 37.1667 23.4172 37.5398 23.4172 38C23.4172 38.4603 23.7903 38.8334 24.2505 38.8334L50.2505 38.8334C50.7107 38.8334 51.0838 38.4603 51.0838 38C51.0838 37.5398 50.7107 37.1667 50.2505 37.1667L24.2505 37.1667ZM53.7505 43.3334L24.2505 43.3334C23.7903 43.3334 23.4172 42.9603 23.4172 42.5C23.4172 42.0398 23.7903 41.6667 24.2505 41.6667L53.7505 41.6667C54.2107 41.6667 54.5838 42.0398 54.5838 42.5001C54.5838 42.9603 54.2107 43.3334 53.7505 43.3334ZM18.0835 39.9999C18.0835 41.2885 17.0388 42.3332 15.7502 42.3332C14.4615 42.3332 13.4168 41.2885 13.4168 39.9999C13.4168 38.7112 14.4615 37.6665 15.7502 37.6665C17.0388 37.6665 18.0835 38.7112 18.0835 39.9999ZM19.7502 39.9999C19.7502 42.209 17.9593 43.9999 15.7502 43.9999C13.541 43.9999 11.7502 42.209 11.7502 39.9999C11.7502 37.7907 13.541 35.9999 15.7502 35.9999C17.9593 35.9999 19.7502 37.7907 19.7502 39.9999ZM23.4172 56.0001C23.4172 55.5399 23.7903 55.1668 24.2505 55.1668L50.2505 55.1668C50.7107 55.1668 51.0838 55.5399 51.0838 56.0001C51.0838 56.4604 50.7107 56.8335 50.2505 56.8335L24.2505 56.8335C23.7903 56.8335 23.4172 56.4604 23.4172 56.0001ZM24.2505 61.3335L53.7505 61.3335C54.2107 61.3335 54.5838 60.9604 54.5838 60.5002C54.5838 60.0399 54.2107 59.6668 53.7505 59.6668L24.2505 59.6668C23.7903 59.6668 23.4172 60.0399 23.4172 60.5002C23.4172 60.9604 23.7903 61.3335 24.2505 61.3335ZM15.7502 60.3333C17.0388 60.3333 18.0835 59.2887 18.0835 58C18.0835 56.7113 17.0388 55.6667 15.7502 55.6667C14.4615 55.6667 13.4168 56.7113 13.4168 58C13.4168 59.2887 14.4615 60.3333 15.7502 60.3333ZM15.7502 62C17.9593 62 19.7502 60.2091 19.7502 58C19.7502 55.7909 17.9593 54 15.7502 54C13.541 54 11.7502 55.7909 11.7502 58C11.7502 60.2091 13.541 62 15.7502 62Z" fill="#8F96A3"/>
</g>
<ellipse cx="43.25" cy="104.875" rx="41.25" ry="1.875" fill="#F1F2F3"/>
<defs>
<clipPath id="clip0">
<rect width="90" height="100" fill="white"/>
</clipPath>
</defs>
</svg>
