<svg width="20" height="20" viewBox="0 0 20 20" fill="none" xmlns="http://www.w3.org/2000/svg">
<path d="M10 3H3V17H14V14" stroke="#40444D" stroke-width="2"/>
<path d="M10 7V2L15 7H10Z" fill="#40444D"/>
<path d="M9.20675 10.1569V8.93838H9.43383C9.74525 8.93838 9.90096 9.14146 9.90096 9.54762C9.90096 9.7577 9.85987 9.91176 9.77769 10.0098C9.69983 10.1078 9.58521 10.1569 9.43383 10.1569H9.20675ZM8 8V13H9.20675V11.0952H9.62847C10.1259 11.0952 10.5022 10.9669 10.7574 10.7101C11.0169 10.4486 11.1466 10.0588 11.1466 9.54062C11.1466 9.3212 11.1207 9.11811 11.0688 8.93137C11.0169 8.74463 10.9347 8.58357 10.8222 8.44818C10.7141 8.30812 10.5757 8.19841 10.407 8.11905C10.2383 8.03968 10.0394 8 9.81013 8H8Z" fill="#40444D"/>
<path d="M11.5301 8V13H13.2819C13.6322 13 13.9047 12.9323 14.0993 12.7969C14.294 12.6569 14.4389 12.4725 14.534 12.2437C14.6335 12.0103 14.6941 11.7442 14.7157 11.4454C14.7373 11.1419 14.7481 10.8268 14.7481 10.5C14.7481 10.1732 14.7373 9.86041 14.7157 9.56162C14.6941 9.25817 14.6335 8.99206 14.534 8.76331C14.4389 8.52988 14.294 8.34547 14.0993 8.21008C13.9047 8.07003 13.6322 8 13.2819 8H11.5301ZM12.7369 12.0616V8.93838H12.9769C13.0937 8.93838 13.1867 8.95705 13.2559 8.9944C13.3251 9.02708 13.377 9.09944 13.4116 9.21148C13.4506 9.32353 13.4743 9.48226 13.483 9.68767C13.496 9.89309 13.5025 10.1639 13.5025 10.5C13.5025 10.8361 13.496 11.1069 13.483 11.3123C13.4743 11.5177 13.4506 11.6765 13.4116 11.7885C13.377 11.9006 13.3251 11.9753 13.2559 12.0126C13.1867 12.0453 13.0937 12.0616 12.9769 12.0616H12.7369Z" fill="#40444D"/>
<path d="M15.2556 8V13H16.4624V10.9412H17.9027V9.91877H16.4624V9.06443H18V8H15.2556Z" fill="#40444D"/>
</svg>
