<svg width="16" height="16" viewBox="0 0 16 16" fill="none" xmlns="http://www.w3.org/2000/svg">
<path fill-rule="evenodd" clip-rule="evenodd" d="M2.00676 2C2.00227 2.13274 2 2.26609 2 2.4C2 3.6889 2.20984 4.92719 2.59679 6.08357L5.37705 4.69344L4.47924 2H2.00676ZM1.14473 7.86924C0.408291 6.19436 0 4.34354 0 2.4C0 2.06976 0.0117894 1.7421 0.0349928 1.41744L0.0434044 1.29974L0.0789787 1.18723C0.296265 0.500059 0.938427 0 1.7 0H4.69547C5.4272 0 6.07684 0.468231 6.30823 1.16241L7.3567 4.30782C7.62423 5.11041 7.26089 5.98759 6.5042 6.36593L3.40265 7.91671C4.44379 9.74752 6.25247 11.5562 8.08329 12.5973L9.63407 9.4958C10.0124 8.73911 10.8896 8.37577 11.6922 8.6433L14.8376 9.69177C15.5318 9.92316 16 10.5728 16 11.3045V14.3C16 15.0616 15.4999 15.7037 14.8128 15.921L14.7003 15.9566L14.5826 15.965C14.2579 15.9882 13.9302 16 13.6 16C11.6565 16 9.80564 15.5917 8.13076 14.8553C8.00823 14.8022 7.88559 14.7461 7.76297 14.6869C4.94112 13.3442 2.65581 11.0589 1.31305 8.23704C1.25393 8.11441 1.19778 7.99177 1.14473 7.86924ZM9.91643 13.4032C11.0728 13.7902 12.3111 14 13.6 14C13.7339 14 13.8673 13.9977 14 13.9932V11.5208L11.3066 10.6229L9.91643 13.4032Z" fill="#40444D"/>
</svg>
