<svg width="20" height="20" viewBox="0 0 20 20" fill="none" xmlns="http://www.w3.org/2000/svg">
<path fill-rule="evenodd" clip-rule="evenodd" d="M10.9887 6.47738L11.686 6.39991L12.1821 5.90383L13.5963 4.48961L15.0105 5.90383L13.5963 7.31804L13.1002 7.81412L13.0227 8.51139L12.7751 10.7396L8.76055 6.72496L10.9887 6.47738ZM14.5748 12.6537L14.5862 12.5506L15.0105 8.73226L17.1318 6.61094C17.5223 6.22041 17.5223 5.58725 17.1318 5.19672L14.3034 2.36829C13.9129 1.97777 13.2797 1.97777 12.8892 2.36829L10.7678 4.48961L6.94947 4.91388L6.84643 4.92533L6.05902 5.01282L5.43784 5.08184C5.02115 5.12814 4.84304 5.63588 5.1395 5.93233L5.58144 6.37428L6.14165 6.93449L6.21497 7.0078L12.4923 13.2851L12.5656 13.3584L13.1258 13.9187L13.5678 14.3606C13.8642 14.6571 14.372 14.479 14.4183 14.0623L14.4873 13.4411L14.5748 12.6537ZM2.13454 15.8116C1.81623 16.2094 1.848 16.783 2.20831 17.1434L2.35674 17.2918C2.71704 17.6521 3.29065 17.6839 3.68854 17.3655L10.0607 12.2678L7.23227 9.43939L2.13454 15.8116Z" fill="#40444D"/>
</svg>
