<svg width="20" height="20" viewBox="0 0 20 20" fill="none" xmlns="http://www.w3.org/2000/svg">
<path d="M5.16665 7.50008C5.16665 4.8307 7.3306 2.66675 9.99998 2.66675C12.6694 2.66675 14.8333 4.8307 14.8333 7.50008V8.95117C14.8333 10.8198 15.5255 12.617 16.7678 14.0001H3.23219C4.4745 12.617 5.16665 10.8198 5.16665 8.95117V7.50008ZM17.4544 14.702C17.4542 14.7018 17.454 14.7017 17.4538 14.7015L17.4544 14.702Z" stroke="#40444D" stroke-width="2"/>
<path d="M13.1666 14.1667C13.1666 15.0065 12.833 15.812 12.2392 16.4058C11.6453 16.9997 10.8398 17.3333 9.99998 17.3333C9.16013 17.3333 8.35467 16.9997 7.76081 16.4058C7.16694 15.812 6.83331 15.0065 6.83331 14.1667" stroke="#40444D" stroke-width="2"/>
</svg>
