<svg width="20" height="20" viewBox="0 0 20 20" fill="none" xmlns="http://www.w3.org/2000/svg">
<path fill-rule="evenodd" clip-rule="evenodd" d="M8.70711 3.29289C9.09763 3.68342 9.09763 4.31658 8.70711 4.70711L5.41421 8H11C14.866 8 18 11.134 18 15V16C18 16.5523 17.5523 17 17 17C16.4477 17 16 16.5523 16 16V15C16 12.2386 13.7614 10 11 10H5.41421L8.70711 13.2929C9.09763 13.6834 9.09763 14.3166 8.70711 14.7071C8.31658 15.0976 7.68342 15.0976 7.29289 14.7071L2.29289 9.70711C1.90237 9.31658 1.90237 8.68342 2.29289 8.29289L7.29289 3.29289C7.68342 2.90237 8.31658 2.90237 8.70711 3.29289Z" fill="#40444D"/>
</svg>
