<svg width="20" height="20" viewBox="0 0 20 20" fill="none" xmlns="http://www.w3.org/2000/svg">
<path fill-rule="evenodd" clip-rule="evenodd" d="M5 4C4.44772 4 4 4.44772 4 5V15C4 15.5523 4.44772 16 5 16H6V13.5C6 12.6716 6.67157 12 7.5 12H12.5C13.3284 12 14 12.6716 14 13.5V16H15C15.5523 16 16 15.5523 16 15V7.82843C16 7.56321 15.8946 7.30886 15.7071 7.12132L12.8787 4.29289C12.6911 4.10536 12.4368 4 12.1716 4H5ZM12 16H8V14H12V16ZM5 18H6H14H15C16.6569 18 18 16.6569 18 15V7.82843C18 7.03278 17.6839 6.26972 17.1213 5.70711L14.2929 2.87868C13.7303 2.31607 12.9672 2 12.1716 2H5C3.34315 2 2 3.34315 2 5V15C2 16.6569 3.34315 18 5 18ZM7 6C6.44772 6 6 6.44772 6 7C6 7.55228 6.44772 8 7 8H11C11.5523 8 12 7.55228 12 7C12 6.44772 11.5523 6 11 6H7Z" fill="#40444D"/>
</svg>
