<svg width="20" height="20" viewBox="0 0 20 20" fill="none" xmlns="http://www.w3.org/2000/svg">
<mask id="path-1-inside-1" fill="white">
<path fill-rule="evenodd" clip-rule="evenodd" d="M13.3336 3.61979C12.8916 3.61979 12.4676 3.4442 12.1551 3.13164L11.1783 2.15487C10.5274 1.504 9.47216 1.504 8.82129 2.15487L7.84452 3.13164C7.53196 3.4442 7.10804 3.61979 6.66601 3.61979H5.28646C4.36598 3.61979 3.61979 4.36598 3.61979 5.28646V6.66601C3.61979 7.10804 3.4442 7.53196 3.13164 7.84452L2.15484 8.82132C1.50397 9.47219 1.50396 10.5275 2.15484 11.1783L3.13164 12.1551C3.4442 12.4677 3.61979 12.8916 3.61979 13.3336V14.7142C3.61979 15.6347 4.36598 16.3809 5.28646 16.3809H6.66705C7.10908 16.3809 7.533 16.5565 7.84556 16.8691L8.82129 17.8448C9.47216 18.4957 10.5274 18.4957 11.1783 17.8448L12.154 16.8691C12.4666 16.5565 12.8905 16.3809 13.3325 16.3809H14.7142C15.6347 16.3809 16.3809 15.6347 16.3809 14.7142V13.3325C16.3809 12.8905 16.5565 12.4666 16.8691 12.154L17.8448 11.1783C18.4956 10.5275 18.4956 9.47219 17.8448 8.82132L16.8691 7.84562C16.5565 7.53306 16.3809 7.10914 16.3809 6.66711V5.28646C16.3809 4.36598 15.6347 3.61979 14.7142 3.61979H13.3336Z"/>
</mask>
<path d="M17.8448 8.82132L16.6662 9.99983L17.8448 8.82132ZM12.154 16.8691L10.9755 15.6905L12.154 16.8691ZM8.82129 17.8448L7.64277 19.0233L8.82129 17.8448ZM7.84556 16.8691L6.66705 18.0476L7.84556 16.8691ZM3.13164 12.1551L1.95312 13.3336L3.13164 12.1551ZM2.15484 11.1783L3.33335 9.99983L2.15484 11.1783ZM12.1551 3.13164L13.3336 1.95313L12.1551 3.13164ZM11.1783 2.15487L9.9998 3.33338L11.1783 2.15487ZM9.9998 3.33338L10.9766 4.31015L13.3336 1.95313L12.3568 0.976359L9.9998 3.33338ZM9.02303 4.31015L9.9998 3.33338L7.64278 0.976358L6.66601 1.95312L9.02303 4.31015ZM5.28646 5.28646H6.66601V1.95312H5.28646V5.28646ZM5.28646 6.66601V5.28646H1.95312V6.66601H5.28646ZM3.33335 9.99983L4.31015 9.02303L1.95313 6.66601L0.976328 7.64281L3.33335 9.99983ZM4.31015 10.9766L3.33335 9.99983L0.976327 12.3569L1.95312 13.3336L4.31015 10.9766ZM5.28646 14.7142V13.3336H1.95312V14.7142H5.28646ZM6.66705 14.7142H5.28646V18.0476H6.66705V14.7142ZM9.9998 16.6663L9.02407 15.6905L6.66705 18.0476L7.64277 19.0233L9.9998 16.6663ZM10.9755 15.6905L9.9998 16.6663L12.3568 19.0233L13.3325 18.0476L10.9755 15.6905ZM14.7142 14.7142H13.3325V18.0476H14.7142V14.7142ZM14.7142 13.3325V14.7142H18.0476V13.3325H14.7142ZM16.6662 9.99983L15.6905 10.9755L18.0476 13.3325L19.0233 12.3569L16.6662 9.99983ZM15.6905 9.02413L16.6662 9.99983L19.0233 7.64281L18.0476 6.66711L15.6905 9.02413ZM14.7142 5.28646V6.66711H18.0476V5.28646H14.7142ZM13.3336 5.28646H14.7142V1.95312H13.3336V5.28646ZM18.0476 5.28646C18.0476 3.44551 16.5552 1.95312 14.7142 1.95312V5.28646L14.7142 5.28646H18.0476ZM18.0476 6.66711V6.66711H14.7142C14.7142 7.55117 15.0654 8.39901 15.6905 9.02413L18.0476 6.66711ZM19.0233 12.3569C20.325 11.0551 20.325 8.94455 19.0233 7.64281L16.6662 9.99983L19.0233 12.3569ZM18.0476 13.3325L15.6905 10.9755C15.0654 11.6006 14.7142 12.4485 14.7142 13.3325H18.0476ZM14.7142 18.0476C16.5552 18.0476 18.0476 16.5552 18.0476 14.7142H14.7142L14.7142 14.7142V18.0476ZM13.3325 18.0476H13.3325V14.7142C12.4485 14.7142 11.6006 15.0654 10.9755 15.6905L13.3325 18.0476ZM7.64277 19.0233C8.94452 20.325 11.0551 20.325 12.3568 19.0233L9.9998 16.6663L7.64277 19.0233ZM6.66705 18.0476L9.02407 15.6905C8.39895 15.0654 7.5511 14.7142 6.66705 14.7142V18.0476ZM1.95312 14.7142C1.95312 16.5552 3.44551 18.0476 5.28646 18.0476V14.7142L5.28646 14.7142H1.95312ZM1.95312 13.3336H5.28646C5.28646 12.4496 4.93527 11.6017 4.31015 10.9766L1.95312 13.3336ZM0.976328 7.64281C-0.325419 8.94455 -0.325422 11.0551 0.976327 12.3569L3.33335 9.99983L3.33335 9.99983L0.976328 7.64281ZM1.95312 6.66601L1.95313 6.66601L4.31015 9.02303C4.93527 8.39791 5.28646 7.55006 5.28646 6.66601H1.95312ZM5.28646 1.95312C3.44551 1.95312 1.95312 3.44551 1.95312 5.28646H5.28646V5.28646V1.95312ZM6.66601 1.95312L6.66601 1.95312V5.28646C7.55006 5.28646 8.39791 4.93527 9.02303 4.31015L6.66601 1.95312ZM10.9766 4.31015C11.6017 4.93527 12.4495 5.28646 13.3336 5.28646V1.95312V1.95313L10.9766 4.31015ZM12.3568 0.976359C11.0551 -0.325387 8.94452 -0.32539 7.64278 0.976358L9.9998 3.33338L9.9998 3.33338L12.3568 0.976359Z" fill="#40444D" mask="url(#path-1-inside-1)"/>
<circle cx="9.99996" cy="10.0001" r="2.33333" stroke="#40444D" stroke-width="2"/>
</svg>
