<svg width="12" height="12" viewBox="0 0 12 12" fill="none" xmlns="http://www.w3.org/2000/svg">
<path fill-rule="evenodd" clip-rule="evenodd" d="M9.6001 7.69995L8.74295 7.19995L4.6001 7.19994C4.04781 7.19994 3.6001 6.75223 3.6001 6.19994V2.19995C3.6001 1.64767 4.04781 1.19995 4.6001 1.19995H9.8001C10.3524 1.19995 10.8001 1.64767 10.8001 2.19995V7.01071V8.39995L9.6001 7.69995ZM9.6001 2.39995V6.31071L9.3476 6.16342L9.06738 5.99995L8.74296 5.99995L4.8001 5.99994V2.39995H9.6001ZM2.19995 3.59998H2.39995V8.39998L2.39995 8.71073L2.65245 8.56344L2.93267 8.39998L3.25709 8.39998H8.39995V8.59997C8.39995 9.15225 7.95224 9.59997 7.39995 9.59997L3.25709 9.59998L2.39995 10.1L1.19995 10.8V9.41073V4.59998C1.19995 4.04769 1.64767 3.59998 2.19995 3.59998Z" fill="#40444D"/>
</svg>
