<svg width="32" height="32" viewBox="0 0 32 32" fill="none" xmlns="http://www.w3.org/2000/svg">
<rect width="32" height="32" rx="16" fill="black" fill-opacity="0.5"/>
<path fill-rule="evenodd" clip-rule="evenodd" d="M21.3941 9.69395C19.5196 7.81942 16.4804 7.81942 14.6059 9.69395L7.81756 16.4822C7.19271 17.1071 7.19271 18.1202 7.81756 18.745L12.3431 23.2705C12.9679 23.8954 13.981 23.8954 14.6059 23.2705L21.3941 16.4822C23.2687 14.6077 23.2687 11.5685 21.3941 9.69395ZM19.1314 14.2194C18.5065 14.8442 17.4935 14.8442 16.8686 14.2194C16.2438 13.5945 16.2438 12.5815 16.8686 11.9566C17.4935 11.3318 18.5065 11.3318 19.1314 11.9566C19.7562 12.5815 19.7562 13.5945 19.1314 14.2194Z" fill="white"/>
</svg>
