<svg width="20" height="20" viewBox="0 0 20 20" fill="none" xmlns="http://www.w3.org/2000/svg">
<path fill-rule="evenodd" clip-rule="evenodd" d="M13.3335 2.33333C13.7382 2.63741 14 3.12147 14 3.66667V4H16H18V6H16V16.3333C16 17.2538 15.2538 18 14.3333 18H5.66667C4.74619 18 4 17.2538 4 16.3333V6H2V4H4H6V3.66667C6 3.12147 6.26178 2.63741 6.6665 2.33333C6.94509 2.12403 7.29139 2 7.66667 2H12.3333C12.7086 2 13.0549 2.12403 13.3335 2.33333ZM6 6H14V16H6V6ZM9.33331 14V8H7.33331V14H9.33331ZM10.4999 8V14H12.4999V8H10.4999Z" fill="white"/>
</svg>
