<svg width="20" height="20" viewBox="0 0 20 20" fill="none" xmlns="http://www.w3.org/2000/svg">
<path fill-rule="evenodd" clip-rule="evenodd" d="M15.1348 16.1348C13.7454 17.2991 11.9545 18 10 18C5.58172 18 2 14.4183 2 10C2 8.04545 2.70094 6.25462 3.86515 4.86515L7 8L8.33521 6.66479C8.32159 6.80492 8.3662 6.95197 8.47957 7.06534L9.11596 7.70173L9.48019 8.06596L9.4965 8.08227L11.9177 10.5035L11.9341 10.5198L12.2983 10.8841L12.9347 11.5205C13.048 11.6338 13.1951 11.6784 13.3352 11.6648L12 13L15.1348 16.1348ZM16.4971 14.6687C17.4429 13.3548 18 11.7425 18 10C18 5.58172 14.4183 2 10 2C8.25752 2 6.64515 2.55708 5.33129 3.50287L8.36483 6.5364C8.41708 6.39604 8.53162 6.27792 8.69576 6.23102L9.56113 5.98377L10.0564 5.84226L10.0786 5.83593L11.8385 5.3331L12.8284 4.34314C13.219 3.95262 13.8521 3.95262 14.2427 4.34314L15.6569 5.75736C16.0474 6.14788 16.0474 6.78105 15.6569 7.17157L14.6669 8.16152L14.1641 9.92143L14.1578 9.94361L14.0162 10.4389L13.769 11.3043C13.7221 11.4684 13.604 11.5829 13.4636 11.6352L16.4971 14.6687ZM20 10C20 15.5228 15.5228 20 10 20C4.47715 20 0 15.5228 0 10C0 4.47715 4.47715 0 10 0C15.5228 0 20 4.47715 20 10ZM12.8863 7.11377L12.3879 7.25614L11.6964 7.45373L12.5463 8.30363L12.7439 7.61208L12.8863 7.11377ZM4.95639 14.8559C4.6045 14.504 4.5649 13.9469 4.86349 13.5488L8.58576 8.58579L11.4142 11.4142L6.45117 15.1365C6.05305 15.4351 5.49595 15.3955 5.14406 15.0436L4.95639 14.8559Z" fill="#40444D"/>
</svg>
