
<svg width="20" height="20" viewBox="0 0 20 20" fill="none" xmlns="http://www.w3.org/2000/svg">
<path fill-rule="evenodd" clip-rule="evenodd" d="M3.33333 3.33341H16.6667L16.6667 16.6667H3.33333L3.33333 3.33341ZM1.66667 3.33341C1.66667 2.41294 2.41286 1.66675 3.33333 1.66675H16.6667C17.5871 1.66675 18.3333 2.41294 18.3333 3.33341V16.6667C18.3333 17.5872 17.5871 18.3334 16.6667 18.3334H3.33333C2.41286 18.3334 1.66667 17.5872 1.66667 16.6667V3.33341ZM7.5 7.5V5H10V7.5H7.5ZM10 10H12.5V7.5H10V10ZM10 10V12.5H7.5V10H10Z" fill="#40444D"/>
<rect x="10.625" y="13.125" width="1.25" height="1.25" stroke="#40444D" stroke-width="1.25"/>
</svg>
