<svg width="20" height="20" viewBox="0 0 20 20" fill="none" xmlns="http://www.w3.org/2000/svg">
<path fill-rule="evenodd" clip-rule="evenodd" d="M12.1213 0.807617L12.8284 1.51472L18.4853 7.17158L19.1924 7.87868L18.4853 8.58579L14.2427 12.8284L12.8284 11.4142L16.364 7.87868L12.1213 3.63604L8.5858 7.17158L7.17158 5.75736L11.4142 1.51472L12.1213 0.807617ZM12.8291 8.58515L8.58895 12.8331L7.17344 11.4201L11.4136 7.17223L12.8291 8.58515ZM7.17158 8.5858L3.63604 12.1213L7.87869 16.364L11.4142 12.8284L12.8284 14.2427L8.58579 18.4853L7.87869 19.1924L7.17158 18.4853L1.51472 12.8284L0.807617 12.1213L1.51472 11.4142L5.75737 7.17158L7.17158 8.5858Z" fill="#40444D"/>
</svg>
