<svg width="200" height="200" viewBox="0 0 200 200" fill="none" xmlns="http://www.w3.org/2000/svg">
<path d="M68 143.072V122H98V143.072C98 149.264 101.805 154.82 107.579 157.058L133.364 167.051C134.35 167.433 135 168.382 135 169.439C135 170.853 133.853 172 132.439 172H33.561C32.1466 172 31 170.853 31 169.439C31 168.382 31.6497 167.433 32.6355 167.051L58.4205 157.058C64.1946 154.82 68 149.264 68 143.072Z" stroke="#707580" stroke-width="2"/>
<path d="M17 73.5C16.4477 73.5 16 73.9477 16 74.5C16 75.0523 16.4477 75.5 17 75.5V73.5ZM41 74.5V75.5H41.5097L41.8092 75.0875L41 74.5ZM138 71.5C138.552 71.5 139 71.0523 139 70.5C139 69.9477 138.552 69.5 138 69.5V71.5ZM110.351 70.6678L111.098 71.3322L110.351 70.6678ZM94.1618 87.8675L93.28 88.339L94.1618 87.8675ZM94.9765 87.964L94.2291 87.2996L94.9765 87.964ZM67.0309 38.6461L66.2217 38.0586L67.0309 38.6461ZM67.8765 38.7041L66.9946 39.1756L67.8765 38.7041ZM17 75.5H41V73.5H17V75.5ZM41.8092 75.0875L67.8401 39.2336L66.2217 38.0586L40.1908 73.9125L41.8092 75.0875ZM66.9946 39.1756L93.28 88.339L95.0437 87.396L68.7583 38.2326L66.9946 39.1756ZM95.7239 88.6283L111.098 71.3322L109.603 70.0035L94.2291 87.2996L95.7239 88.6283ZM110.725 71.5H138V69.5H110.725V71.5ZM111.098 71.3322C111.003 71.4389 110.867 71.5 110.725 71.5V69.5C110.296 69.5 109.888 69.6832 109.603 70.0035L111.098 71.3322ZM93.28 88.339C93.7721 89.2595 95.0305 89.4084 95.7239 88.6283L94.2291 87.2996C94.4602 87.0396 94.8797 87.0892 95.0437 87.396L93.28 88.339ZM67.8401 39.2336C67.6233 39.5323 67.1686 39.5011 66.9946 39.1756L68.7583 38.2326C68.2362 37.2561 66.8723 37.1625 66.2217 38.0586L67.8401 39.2336Z" fill="#707580"/>
<path fill-rule="evenodd" clip-rule="evenodd" d="M14 5H152C158.627 5 164 10.3726 164 17V68.1609C164.671 68.2151 165.337 68.2828 166 68.3637V17C166 9.26801 159.732 3 152 3H14C6.26801 3 0 9.26801 0 17V109C0 116.732 6.26801 123 14 123H111.364C111.283 122.337 111.215 121.671 111.161 121H14C7.37258 121 2 115.627 2 109V17C2 10.3726 7.37258 5 14 5Z" fill="#707580"/>
<circle cx="160" cy="116" r="40" fill="#4D92DE"/>
<path d="M170.607 105.393L160 116M149.393 126.607L160 116M160 116L149.393 105.393M160 116L170.607 126.607" stroke="white" stroke-width="2" stroke-linecap="round" stroke-linejoin="round"/>
<ellipse cx="100" cy="195" rx="35" ry="2" fill="#E3EEF7"/>
</svg>
