<svg width="200" height="200" viewBox="0 0 200 200" fill="none" xmlns="http://www.w3.org/2000/svg">
<path fill-rule="evenodd" clip-rule="evenodd" d="M2 138V143H46.0033C46.0011 143.203 46 143.406 46 143.61C46 144.378 46.6224 145 47.3903 145H1.51219C0.677032 145 0 144.323 0 143.488V138C0 107.624 24.6243 83 55 83C65.4619 83 75.2416 85.921 83.568 90.992C82.7515 91.272 81.9435 91.5703 81.1446 91.8867C73.4299 87.5033 64.5073 85 55 85C25.7289 85 2 108.729 2 138Z" fill="#707580"/>
<circle r="39" transform="matrix(-1 0 0 1 110 45)" stroke="#707580" stroke-width="2"/>
<path fill-rule="evenodd" clip-rule="evenodd" d="M70.9274 36.3973C65.7987 30.6318 58.3235 27 50 27C34.536 27 22 39.536 22 55C22 70.464 34.536 83 50 83C61.6305 83 71.6048 75.9089 75.8353 65.8142C76.2494 66.4926 76.6833 67.1577 77.1359 67.8087C72.331 77.9703 61.9865 85 50 85C33.4315 85 20 71.5685 20 55C20 38.4315 33.4315 25 50 25C58.4349 25 66.0568 28.4811 71.5073 34.0851C71.2918 34.8468 71.0982 35.6178 70.9274 36.3973Z" fill="#707580"/>
<circle cx="160" cy="131" r="40" fill="#4D92DE"/>
<path d="M170.607 120.393L160 131M149.393 141.607L160 131M160 131L149.393 120.393M160 131L170.607 141.607" stroke="white" stroke-width="2" stroke-linecap="round" stroke-linejoin="round"/>
<path fill-rule="evenodd" clip-rule="evenodd" d="M135.862 88.3483C127.936 84.9075 119.191 83 110 83C74.1015 83 45 112.101 45 148V153.244C45 154.214 45.7862 155 46.7561 155H117.27C116.9 154.343 116.545 153.676 116.205 153H47V148C47 113.206 75.2061 85 110 85C118.398 85 126.411 86.643 133.737 89.6251C134.434 89.1822 135.142 88.7564 135.862 88.3483Z" fill="#707580"/>
<ellipse cx="100" cy="193" rx="35" ry="2" fill="#E3EEF7"/>
</svg>
