<svg width="200" height="200" viewBox="0 0 200 200" fill="none" xmlns="http://www.w3.org/2000/svg">
<path fill-rule="evenodd" clip-rule="evenodd" d="M14 15H156C162.627 15 168 20.3726 168 27V74.6498C168.671 74.7601 169.338 74.884 170 75.0212V27C170 19.268 163.732 13 156 13H14C6.26801 13 0 19.268 0 27V129C0 136.732 6.26801 143 14 143H115.254C114.959 142.341 114.678 141.674 114.412 141H14C7.37258 141 2 135.627 2 129V27C2 20.3726 7.37258 15 14 15Z" fill="#707580"/>
<circle cx="160" cy="123" r="40" fill="#4D92DE"/>
<path d="M170.607 112.393L160 123M149.393 133.607L160 123M160 123L149.393 112.393M160 123L170.607 133.607" stroke="white" stroke-width="2" stroke-linecap="round" stroke-linejoin="round"/>
<path d="M50 55C50 58.3623 49.003 61.6491 47.135 64.4447C45.267 67.2403 42.612 69.4193 39.5056 70.706C36.3993 71.9926 32.9811 72.3293 29.6835 71.6733C26.3858 71.0174 23.3567 69.3983 20.9792 67.0208C18.6017 64.6433 16.9826 61.6142 16.3267 58.3165C15.6707 55.0189 16.0074 51.6007 17.294 48.4944C18.5807 45.388 20.7597 42.733 23.5553 40.865C26.3509 38.997 29.6377 38 33 38L33 55H50Z" stroke="#707580" stroke-width="2"/>
<path d="M56 49C56 44.4913 54.2089 40.1673 51.0208 36.9792C47.8327 33.7911 43.5087 32 39 32L39 49L56 49Z" stroke="#4D92DE" stroke-width="2"/>
<path d="M18.2407 108.349C17.8813 108.769 17.9299 109.4 18.3492 109.759C18.7685 110.119 19.3998 110.07 19.7593 109.651L18.2407 108.349ZM68.6402 86.2682C69.0645 85.9147 69.1218 85.2841 68.7682 84.8598C68.4147 84.4355 67.7841 84.3782 67.3598 84.7318L68.6402 86.2682ZM55.7004 95.3335L56.186 94.4594L55.7004 95.3335ZM56.2633 95.2806L56.9035 96.0488L56.2633 95.2806ZM46.7378 90.8449L45.9417 90.2399L46.7378 90.8449ZM37.1334 102.826L36.7053 103.73L37.1334 102.826ZM37.7455 102.677L36.9493 102.072L37.7455 102.677ZM27.7515 98.79L28.5107 99.4408L27.7515 98.79ZM28.3451 98.6635L28.7732 97.7597L28.3451 98.6635ZM19.7593 109.651L28.5107 99.4408L26.9922 98.1392L18.2407 108.349L19.7593 109.651ZM27.917 99.5672L36.7053 103.73L37.5614 101.923L28.7732 97.7597L27.917 99.5672ZM38.5416 103.282L47.534 91.45L45.9417 90.2399L36.9493 102.072L38.5416 103.282ZM46.8931 91.5846L55.2147 96.2077L56.186 94.4594L47.8644 89.8363L46.8931 91.5846ZM56.9035 96.0488L68.6402 86.2682L67.3598 84.7318L55.6231 94.5124L56.9035 96.0488ZM55.2147 96.2077C55.7564 96.5086 56.4274 96.4455 56.9035 96.0488L55.6231 94.5124C55.7818 94.3801 56.0055 94.3591 56.186 94.4594L55.2147 96.2077ZM47.534 91.45C47.3835 91.648 47.1105 91.7053 46.8931 91.5846L47.8644 89.8363C47.2123 89.474 46.3931 89.6459 45.9417 90.2399L47.534 91.45ZM36.7053 103.73C37.3463 104.034 38.1124 103.847 38.5416 103.282L36.9493 102.072C37.0924 101.884 37.3478 101.821 37.5614 101.923L36.7053 103.73ZM28.5107 99.4408C28.364 99.6119 28.1208 99.6637 27.917 99.5672L28.7732 97.7597C28.1619 97.4702 27.4324 97.6256 26.9922 98.1392L28.5107 99.4408Z" fill="#4D92DE"/>
<line x1="17" y1="130" x2="83" y2="130" stroke="#707580" stroke-width="2" stroke-linecap="round"/>
<path d="M31 113C31 112.448 31.4477 112 32 112H36C36.5523 112 37 112.448 37 113V130H31V113Z" stroke="#707580" stroke-width="2"/>
<path d="M43 108C43 107.448 43.4477 107 44 107H48C48.5523 107 49 107.448 49 108V130H43V108Z" stroke="#707580" stroke-width="2"/>
<path d="M55 103C55 102.448 55.4477 102 56 102H60C60.5523 102 61 102.448 61 103V130H55V103Z" stroke="#707580" stroke-width="2"/>
<path d="M67 98C67 97.4477 67.4477 97 68 97H72C72.5523 97 73 97.4477 73 98V130H67V98Z" stroke="#707580" stroke-width="2"/>
<circle cx="126" cy="52" r="8" stroke="#707580" stroke-width="2"/>
<circle cx="142" cy="35" r="5" stroke="#707580" stroke-width="2"/>
<path d="M132 46L138.5 39" stroke="#707580" stroke-width="2" stroke-linecap="round"/>
<circle r="4.5" transform="matrix(-1 0 0 1 108.5 36.5)" stroke="#707580" stroke-width="2"/>
<path d="M119.5 46.5L112 40" stroke="#707580" stroke-width="2" stroke-linecap="round"/>
<ellipse rx="3" ry="3" transform="matrix(-2.87868e-08 1 1 2.87868e-08 109 63)" stroke="#707580" stroke-width="2"/>
<path d="M119 56L112 61.5" stroke="#707580" stroke-width="2" stroke-linecap="round"/>
<ellipse cx="129" cy="72.0001" rx="4" ry="4" transform="rotate(-180 129 72.0001)" stroke="#707580" stroke-width="2"/>
<path d="M127.5 60L128.5 68" stroke="#707580" stroke-width="2" stroke-linecap="round"/>
<ellipse cx="142" cy="58" rx="2" ry="2" transform="rotate(90 142 58)" stroke="#707580" stroke-width="2"/>
<path d="M134 55.3817L142 58.0001" stroke="#707580" stroke-width="2" stroke-linecap="round"/>
<ellipse cx="100" cy="185" rx="35" ry="2" fill="#E3EEF7"/>
</svg>
