<svg width="200" height="200" viewBox="0 0 200 200" fill="none" xmlns="http://www.w3.org/2000/svg">
<path d="M5 28L80.2258 100.334C81.7743 101.823 84.2223 101.823 85.7707 100.334L161 28" stroke="#707580" stroke-width="2"/>
<path fill-rule="evenodd" clip-rule="evenodd" d="M14 25H152C158.627 25 164 30.3726 164 37V65.1609C164.671 65.2151 165.337 65.2828 166 65.3637V37C166 29.268 159.732 23 152 23H14C6.26801 23 0 29.268 0 37V129C0 136.732 6.26801 143 14 143H120.499C120.018 142.346 119.552 141.679 119.103 141H14C7.37258 141 2 135.627 2 129V37C2 30.3726 7.37258 25 14 25Z" fill="#707580"/>
<path fill-rule="evenodd" clip-rule="evenodd" d="M113.094 98.7831L98.4583 87.5394L97.032 88.9657L112.515 100.861C112.693 100.162 112.886 99.4694 113.094 98.7831ZM67.6614 87.664L69.0861 89.0886L5.61584 138.787L4.38281 137.213L67.6614 87.664Z" fill="#707580"/>
<circle cx="160" cy="113" r="40" fill="#4D92DE"/>
<path d="M170.607 102.393L160 113M149.393 123.607L160 113M160 113L149.393 102.393M160 113L170.607 123.607" stroke="white" stroke-width="2" stroke-linecap="round" stroke-linejoin="round"/>
<ellipse cx="100" cy="175" rx="35" ry="2" fill="#E3EEF7"/>
</svg>
