<svg width="200" height="200" viewBox="0 0 200 200" fill="none" xmlns="http://www.w3.org/2000/svg">
<path fill-rule="evenodd" clip-rule="evenodd" d="M130.792 5.40949C130.604 5.15211 130.304 5 129.985 5H32.0148C31.6959 5 31.3961 5.15212 31.2078 5.40949L2 45.3268V143C2 150.18 7.8203 156 15 156H116.722C117.083 156.676 117.458 157.343 117.849 158H15C6.71573 158 0 151.284 0 143V45C0 44.7877 0.0675812 44.5808 0.192963 44.4095L29.5937 4.22847C30.1587 3.45634 31.0581 3 32.0148 3H129.985C130.942 3 131.841 3.45634 132.406 4.22847L161.807 44.4095C161.932 44.5808 162 44.7877 162 45V84.0401C161.337 84.0134 160.67 84 160 84V45.3268L130.792 5.40949Z" fill="#707580"/>
<circle cx="160" cy="133" r="40" fill="#4D92DE"/>
<path d="M146 132C146.8 131.2 155.667 122.333 160 118M160 118L174 132M160 118V148" stroke="white" stroke-width="2" stroke-linecap="round" stroke-linejoin="round"/>
<path d="M0 45H161" stroke="#707580" stroke-width="2"/>
<path d="M55 46V92L80.5 81L106 91V45" stroke="#4D92DE" stroke-width="2"/>
<ellipse cx="100" cy="195" rx="35" ry="2" fill="#E3EEF7"/>
</svg>
