<svg width="200" height="200" viewBox="0 0 200 200" fill="none" xmlns="http://www.w3.org/2000/svg">
<path fill-rule="evenodd" clip-rule="evenodd" d="M160 23C160 15.8203 154.18 10 147 10H15C7.8203 10 2 15.8203 2 23V137C2 144.18 7.8203 150 15 150H116.722C117.083 150.676 117.458 151.343 117.849 152H15C6.71573 152 0 145.284 0 137V23C0 14.7157 6.71573 8 15 8H147C155.284 8 162 14.7157 162 23V78.0401C161.337 78.0134 160.67 78 160 78V23Z" fill="#707580"/>
<path d="M0 36H161" stroke="#707580" stroke-width="2"/>
<circle cx="160" cy="128" r="40" fill="#4D92DE"/>
<path d="M170.607 117.393L160 128M149.393 138.607L160 128M160 128L149.393 117.393M160 128L170.607 138.607" stroke="white" stroke-width="2" stroke-linecap="round" stroke-linejoin="round"/>
<circle cx="82" cy="93" r="28" stroke="#707580" stroke-width="2"/>
<path d="M101 93C101 100.831 98.8092 107.877 95.3189 112.938C91.8258 118.003 87.1002 121 82 121C76.8998 121 72.1742 118.003 68.6811 112.938C65.1908 107.877 63 100.831 63 93C63 85.1687 65.1908 78.1225 68.6811 73.0616C72.1742 67.9966 76.8998 65 82 65C87.1002 65 91.8258 67.9966 95.3189 73.0616C98.8092 78.1225 101 85.1687 101 93Z" stroke="#707580" stroke-width="2"/>
<path d="M91 93C91 100.928 89.8904 108.062 88.1257 113.18C87.2417 115.744 86.2117 117.747 85.1174 119.089C84.0167 120.439 82.9575 121 82 121C81.0425 121 79.9833 120.439 78.8826 119.089C77.7883 117.747 76.7583 115.744 75.8743 113.18C74.1096 108.062 73 100.928 73 93C73 85.0723 74.1096 77.9376 75.8743 72.8199C76.7583 70.2562 77.7883 68.2532 78.8826 66.9108C79.9833 65.5608 81.0425 65 82 65C82.9575 65 84.0167 65.5608 85.1174 66.9108C86.2117 68.2532 87.2417 70.2562 88.1257 72.8199C89.8904 77.9376 91 85.0723 91 93Z" stroke="#707580" stroke-width="2"/>
<path d="M56 83H108M57 104H107" stroke="#707580" stroke-width="2" stroke-linecap="round"/>
<circle cx="17" cy="24" r="4" stroke="#4D92DE" stroke-width="2"/>
<circle cx="31" cy="24" r="4" stroke="#4D92DE" stroke-width="2"/>
<ellipse cx="100" cy="190" rx="35" ry="2" fill="#E3EEF7"/>
</svg>
