<svg width="200" height="200" viewBox="0 0 200 200" fill="none" xmlns="http://www.w3.org/2000/svg">
<circle cx="160" cy="133" r="40" fill="#4D92DE"/>
<path d="M170.607 122.393L160 133M149.393 143.607L160 133M160 133L149.393 122.393M160 133L170.607 143.607" stroke="white" stroke-width="2" stroke-linecap="round" stroke-linejoin="round"/>
<path d="M96.2165 128.575C90.4726 135.894 84.0689 144.053 76.9976 153.35C70.2686 144.556 64.1438 136.772 58.6168 129.748C48.554 116.958 40.4725 106.687 34.3335 97.4266C24.7318 82.9425 20 71.0923 20 56.2C20 27.4503 45.4367 4 77 4C108.563 4 134 27.4503 134 56.2C134 71.1107 129.269 82.8827 119.667 97.3232C113.697 106.302 105.893 116.246 96.2165 128.575Z" stroke="#707580" stroke-width="2"/>
<path fill-rule="evenodd" clip-rule="evenodd" d="M98.2737 124.54C102.856 124.831 107.289 125.235 111.534 125.742C111.632 125.079 111.744 124.421 111.868 123.768C107.978 123.301 103.934 122.921 99.765 122.634C99.2734 123.263 98.7763 123.898 98.2737 124.54ZM54.6425 123.273C43.0609 124.429 32.6701 126.327 24.1551 128.776C16.867 130.871 10.8962 133.385 6.72464 136.22C2.58674 139.033 0 142.32 0 146C0 149.68 2.58674 152.967 6.72464 155.78C10.8962 158.615 16.867 161.129 24.1551 163.225C38.745 167.419 58.8424 170 81 170C96.855 170 111.655 168.679 124.137 166.39C123.605 165.818 123.086 165.234 122.581 164.638C110.496 166.768 96.2575 168 81 168C58.9748 168 39.0722 165.432 24.7078 161.302C17.5188 159.236 11.7738 156.793 7.84895 154.126C3.89041 151.435 2 148.671 2 146C2 143.329 3.89041 140.565 7.84895 137.874C11.7738 135.207 17.5188 132.764 24.7078 130.698C33.3989 128.199 44.1175 126.272 56.1069 125.14C55.6136 124.511 55.1254 123.889 54.6425 123.273Z" fill="#707580"/>
<path d="M99 56C99 68.1711 89.3535 78 77.5 78C65.6465 78 56 68.1711 56 56C56 43.8289 65.6465 34 77.5 34C89.3535 34 99 43.8289 99 56Z" stroke="#4D92DE" stroke-width="2"/>
<ellipse cx="100" cy="195" rx="35" ry="2" fill="#E3EEF7"/>
</svg>
