<svg width="200" height="200" viewBox="0 0 200 200" fill="none" xmlns="http://www.w3.org/2000/svg">
<circle cx="159.902" cy="121.871" r="40" fill="#4D92DE"/>
<path d="M170.509 111.265L159.902 121.871M149.296 132.478L159.902 121.871M159.902 121.871L149.296 111.265M159.902 121.871L170.509 132.478" stroke="white" stroke-width="2" stroke-linecap="round" stroke-linejoin="round"/>
<path d="M54 138.871L52.9841 144.966C50.3751 160.621 62.447 174.871 78.3174 174.871H81C93.7025 174.871 104 164.574 104 151.871V151.871" stroke="#4D92DE" stroke-width="2"/>
<path fill-rule="evenodd" clip-rule="evenodd" d="M25.8194 104.364L26.318 103.956L26.4847 103.333L41.5783 47.0034C49.8689 16.0624 81.6725 -2.29943 112.613 5.99119C142.237 13.9289 160.33 43.4203 154.541 73.0722C155.224 73.0104 155.912 72.9627 156.604 72.9293C162.28 42.4322 143.602 12.224 113.131 4.05934C81.1232 -4.51717 48.2229 14.4778 39.6464 46.4858L24.5528 102.816L1.18759 121.935C-0.0734648 122.967 0.362609 124.993 1.93653 125.415L126.918 158.904C125.857 157.984 124.837 157.02 123.859 156.014L2.45417 123.483L25.8194 104.364Z" fill="#707580"/>
<ellipse cx="100" cy="196.871" rx="35" ry="2" fill="#E3EEF7"/>
</svg>
