<svg width="200" height="224" viewBox="0 0 200 224" fill="none" xmlns="http://www.w3.org/2000/svg">
<g clip-path="url(#clip0)">
<circle cx="160" cy="40" r="40" fill="#4D92DE"/>
<path d="M170.607 29.3935L160 40.0001M149.393 50.6067L160 40.0001M160 40.0001L149.393 29.3935M160 40.0001L170.607 50.6067" stroke="white" stroke-width="2" stroke-linecap="round" stroke-linejoin="round"/>
<path d="M92.4436 186.34C111.279 194.481 132.102 199 154 199C157.721 199 161.411 198.87 165.065 198.613C168.506 197.544 171 194.383 171 190.65V154.918C171 151.324 168.659 148.133 165.188 146.997L126.994 134.49C122.981 133.176 118.595 134.961 116.703 138.677L92.4436 186.34ZM92.4436 186.34C57.4325 171.208 29.291 143.563 13.8872 109.17M92.4436 186.34C60.704 172.854 27.6152 140.35 13.8872 109.17M13.8872 109.17C5.6003 90.6673 1 70.2114 1 48.7C1 45.0446 1.13283 41.4198 1.39402 37.8298C2.48192 34.45 5.69971 32 9.5 32L45.8735 32C49.5322 32 52.7804 34.2998 53.9374 37.7095L66.6688 75.2297C68.0064 79.1719 66.1897 83.4803 62.4063 85.3387L13.8872 109.17Z" stroke="#707580" stroke-width="2"/>
</g>
<ellipse cx="100" cy="222" rx="35" ry="2" fill="#E3EEF7"/>
<defs>
<clipPath id="clip0">
<rect width="200" height="200" fill="white"/>
</clipPath>
</defs>
</svg>
