<svg width="200" height="200" viewBox="0 0 200 200" fill="none" xmlns="http://www.w3.org/2000/svg">
<path d="M120.111 1C119.559 1 119.111 1.44772 119.111 2C119.111 2.55228 119.559 3 120.111 3V1ZM173 2H174C174 1.44772 173.552 1 173 1V2ZM172 54.8889C172 55.4412 172.448 55.8889 173 55.8889C173.552 55.8889 174 55.4412 174 54.8889H172ZM109.293 64.2929C108.902 64.6834 108.902 65.3166 109.293 65.7071C109.683 66.0976 110.317 66.0976 110.707 65.7071L109.293 64.2929ZM120.111 3H173V1H120.111V3ZM172 2V54.8889H174V2H172ZM172.293 1.29289L109.293 64.2929L110.707 65.7071L173.707 2.70711L172.293 1.29289Z" fill="#707580"/>
<path d="M77 52C77 51.4477 76.5523 51 76 51C75.4477 51 75 51.4477 75 52H77ZM107.293 129.707C107.683 130.098 108.317 130.098 108.707 129.707C109.098 129.317 109.098 128.683 108.707 128.293L107.293 129.707ZM76.1464 97.1464L76.8536 96.4393L76.1464 97.1464ZM75 52V96.7929H77V52H75ZM75.4393 97.8536L107.293 129.707L108.707 128.293L76.8536 96.4393L75.4393 97.8536ZM75 96.7929C75 97.1907 75.158 97.5723 75.4393 97.8536L76.8536 96.4393C76.9473 96.5331 77 96.6603 77 96.7929H75Z" fill="#4D92DE"/>
<circle cx="160" cy="114" r="40" fill="#4D92DE"/>
<path d="M170.607 103.393L160 114M149.393 124.607L160 114M160 114L149.393 103.393M160 114L170.607 124.607" stroke="white" stroke-width="2" stroke-linecap="round" stroke-linejoin="round"/>
<path fill-rule="evenodd" clip-rule="evenodd" d="M14 14H91V16H14C7.37258 16 2 21.3726 2 28V160C2 166.627 7.37258 172 14 172H146C151.612 172 156.324 168.148 157.636 162.944C158.313 162.976 158.994 162.995 159.678 162.999C158.305 169.29 152.703 174 146 174H14C6.26801 174 0 167.732 0 160V28C0 20.268 6.26801 14 14 14Z" fill="#707580"/>
<ellipse cx="100" cy="196" rx="35" ry="2" fill="#E3EEF7"/>
</svg>
