<svg width="200" height="207" viewBox="0 0 200 207" fill="none" xmlns="http://www.w3.org/2000/svg">
<path fill-rule="evenodd" clip-rule="evenodd" d="M167 2C174.18 2 180 7.8203 180 15V98.2541C180.675 98.5563 181.342 98.8732 182 99.2045V15C182 6.71573 175.284 0 167 0H65C56.7157 0 50 6.71573 50 15V65H52V15C52 7.8203 57.8203 2 65 2H167ZM122.051 174C121.517 173.347 120.999 172.68 120.499 172H65C57.8203 172 52 166.18 52 159V149H50V159C50 167.284 56.7157 174 65 174H122.051Z" fill="#707580"/>
<circle cx="160" cy="143" r="40" fill="#4D92DE"/>
<path d="M169.607 132.393L159 143M148.393 153.607L159 143M159 143L148.393 132.393M159 143L169.607 153.607" stroke="white" stroke-width="2" stroke-linecap="round" stroke-linejoin="round"/>
<path d="M1 105.5C0.447715 105.5 0 105.948 0 106.5C0 107.052 0.447715 107.5 1 107.5V105.5ZM95 106.5L95.7071 107.207C96.0976 106.817 96.0976 106.183 95.7071 105.793L95 106.5ZM68.7071 78.7929C68.3166 78.4024 67.6834 78.4024 67.2929 78.7929C66.9024 79.1834 66.9024 79.8166 67.2929 80.2071L68.7071 78.7929ZM67.2929 132.793C66.9024 133.183 66.9024 133.817 67.2929 134.207C67.6834 134.598 68.3166 134.598 68.7071 134.207L67.2929 132.793ZM1 107.5H95V105.5H1V107.5ZM95.7071 105.793L68.7071 78.7929L67.2929 80.2071L94.2929 107.207L95.7071 105.793ZM94.2929 105.793L67.2929 132.793L68.7071 134.207L95.7071 107.207L94.2929 105.793Z" fill="#707580"/>
<line x1="93" y1="28" x2="161" y2="28" stroke="#4D92DE" stroke-width="2" stroke-linecap="round"/>
<line x1="93" y1="44" x2="139" y2="44" stroke="#4D92DE" stroke-width="2" stroke-linecap="round"/>
<ellipse cx="100" cy="205" rx="35" ry="2" fill="#E3EEF7"/>
</svg>
