<svg width="200" height="214" viewBox="0 0 200 214" fill="none" xmlns="http://www.w3.org/2000/svg">
<path fill-rule="evenodd" clip-rule="evenodd" d="M169 86C169 78.8203 163.18 73 156 73H16C8.8203 73 3 78.8203 3 86V163C3 170.18 8.8203 176 16 176H114.412C114.678 176.674 114.959 177.341 115.254 178H16C7.71573 178 1 171.284 1 163V86C1 77.7157 7.71573 71 16 71H156C164.284 71 171 77.7157 171 86V110.24C170.338 110.088 169.672 109.949 169 109.825V86Z" fill="#707580"/>
<circle cx="160" cy="158" r="40" fill="#4D92DE"/>
<path d="M170.607 147.393L160 158M149.393 168.607L160 158M160 158L149.393 147.393M160 158L170.607 168.607" stroke="white" stroke-width="2" stroke-linecap="round" stroke-linejoin="round"/>
<circle cx="86" cy="13" r="11" stroke="#707580" stroke-width="2"/>
<path fill-rule="evenodd" clip-rule="evenodd" d="M97.2992 17.0505C97.0568 17.7268 96.7553 18.375 96.4011 18.9889L147.612 71H24.388L75.599 18.9889C75.2447 18.375 74.9433 17.7268 74.7008 17.0505L21.2875 71.2984C21.0047 71.5856 20.922 72.0145 21.0776 72.3863C21.2333 72.7581 21.597 73 22 73H150C150.403 73 150.767 72.7581 150.922 72.3863C151.078 72.0145 150.995 71.5856 150.713 71.2984L97.2992 17.0505Z" fill="#707580"/>
<line x1="33" y1="110" x2="113" y2="110" stroke="#4D92DE" stroke-width="2" stroke-linecap="round"/>
<line x1="33" y1="126" x2="89" y2="126" stroke="#4D92DE" stroke-width="2" stroke-linecap="round"/>
<ellipse cx="100" cy="212" rx="35" ry="2" fill="#E3EEF7"/>
</svg>
