<svg width="200" height="223" viewBox="0 0 200 223" fill="none" xmlns="http://www.w3.org/2000/svg">
<path d="M161 56H120C112.268 56 106 49.732 106 42V1" stroke="#4D92DE" stroke-width="2"/>
<path d="M161 72V56L106.342 1L25 1C17.268 1 11 7.26802 11 15V185C11 192.732 17.268 199 25 199H147C154.732 199 161 192.732 161 185V172" stroke="#707580" stroke-width="2" stroke-linecap="round" stroke-linejoin="round"/>
<path d="M53.0853 155.5C52.3218 151.041 48.4738 145.3 41.1137 145.3C33.4177 145.3 28.1649 151.774 28.1649 161.364C28.1649 170.953 33.4177 177.428 41.1137 177.428C48.4738 177.428 52.3218 171.625 53.0853 167.227H52.047C51.2835 171.442 47.4965 176.45 41.1137 176.45C34.7004 176.45 29.1421 171.197 29.1421 161.364C29.1421 151.652 34.7004 146.277 41.1137 146.277C47.4965 146.277 51.2835 151.347 52.047 155.5H53.0853ZM77.7462 153.545H78.7235C78.4181 148.72 74.7991 145.239 69.4394 145.239C64.0949 145.239 60.1553 148.69 60.1553 153.301C60.1553 156.92 62.5679 159.455 67.4848 160.997L71.0274 162.097C76.0818 163.669 78.1737 165.7 78.1737 169.06C78.1737 173.488 74.57 176.511 69.195 176.511C64.0338 176.511 60.705 173.717 60.3996 169.67H59.4223C59.7277 174.267 63.4841 177.489 69.195 177.489C75.1198 177.489 79.151 173.961 79.151 169.06C79.151 165.212 76.6773 162.784 71.2718 161.119L67.7291 160.02C63.2398 158.646 61.1325 156.477 61.1325 153.301C61.1325 149.194 64.6599 146.216 69.4394 146.216C74.2799 146.216 77.4408 149.27 77.7462 153.545ZM84.8963 145.727H83.858L95.0355 177H96.3793L107.557 145.727H106.518L95.7685 175.778H95.6463L84.8963 145.727Z" fill="#707580"/>
<line x1="12" y1="123" x2="109" y2="123" stroke="#707580" stroke-width="2" stroke-linecap="round"/>
<circle cx="160" cy="122" r="40" fill="#4D92DE"/>
<path d="M146 121C146.8 120.2 155.667 111.333 160 107M160 107L174 121M160 107V137" stroke="white" stroke-width="2" stroke-linecap="round" stroke-linejoin="round"/>
<ellipse cx="86" cy="221" rx="35" ry="2" fill="#E3EEF7"/>
</svg>
